<?xml version="1.0" encoding="UTF-8" standalone="no"?>
<!-- Created with Inkscape (http://www.inkscape.org/) -->

<svg
   xmlns:dc="http://purl.org/dc/elements/1.1/"
   xmlns:cc="http://creativecommons.org/ns#"
   xmlns:rdf="http://www.w3.org/1999/02/22-rdf-syntax-ns#"
   xmlns:svg="http://www.w3.org/2000/svg"
   xmlns="http://www.w3.org/2000/svg"
   version="1.1"
   width="300"
   height="162.22377"
   id="svg2"
   xml:space="preserve"><metadata
     id="metadata8"><rdf:RDF><cc:Work
         rdf:about=""><dc:format>image/svg+xml</dc:format><dc:type
           rdf:resource="http://purl.org/dc/dcmitype/StillImage" /><dc:title></dc:title></cc:Work></rdf:RDF></metadata><defs
     id="defs6"><clipPath
       id="clipPath16"><path
         d="m 207.78,737.065 100.702,0 0,-28.592 -100.702,0 0,28.592 z"
         id="path18" /></clipPath><clipPath
       id="clipPath28"><path
         d="m 308.361,737.065 33.588,0 0,-57.063 -33.588,0 0,57.063 z"
         id="path30" /></clipPath><clipPath
       id="clipPath40"><path
         d="m 207.78,708.594 100.702,0 0,-28.592 -100.702,0 0,28.592 z"
         id="path42" /></clipPath><clipPath
       id="clipPath204"><path
         d="m 207.78,737.065 283.342,0 0,-57.063 -283.342,0 0,57.063 z"
         id="path206" /></clipPath><clipPath
       id="clipPath216"><path
         d="m 0.015015,841.89 595.260995,0 0,-6.6329 -595.260995,0 0,6.6329 z"
         id="path218" /></clipPath><linearGradient
       x1="0"
       y1="0"
       x2="1"
       y2="0"
       id="linearGradient222"
       gradientUnits="userSpaceOnUse"
       gradientTransform="matrix(622.331,0,0,-622.331,-13.528,836.251)"
       spreadMethod="pad"><stop
         id="stop224"
         style="stop-color:#ffffff;stop-opacity:1"
         offset="0" /><stop
         id="stop226"
         style="stop-color:#426889;stop-opacity:1"
         offset="0.60000002" /><stop
         id="stop228"
         style="stop-color:#426889;stop-opacity:1"
         offset="1" /></linearGradient><clipPath
       id="clipPath236"><path
         d="m 0.015015,841.89 595.260995,0 0,-841.89 -595.260995,0 0,841.89 z"
         id="path238" /></clipPath><linearGradient
       x1="0"
       y1="0"
       x2="1"
       y2="0"
       id="linearGradient242"
       gradientUnits="userSpaceOnUse"
       gradientTransform="matrix(623.62201,0,0,623.62201,-14.173205,7.132859)"
       spreadMethod="pad"><stop
         id="stop244"
         style="stop-color:#ffffff;stop-opacity:1"
         offset="0" /><stop
         id="stop246"
         style="stop-color:#426889;stop-opacity:1"
         offset="0.60000002" /><stop
         id="stop248"
         style="stop-color:#426889;stop-opacity:1"
         offset="1" /></linearGradient><linearGradient
       x1="0"
       y1="0"
       x2="1"
       y2="0"
       id="linearGradient254"
       gradientUnits="userSpaceOnUse"
       gradientTransform="matrix(623.62201,0,0,623.62201,-14.173205,7.132859)"
       spreadMethod="pad"><stop
         id="stop256"
         style="stop-color:#ffffff;stop-opacity:1"
         offset="0" /><stop
         id="stop258"
         style="stop-color:#426889;stop-opacity:1"
         offset="0.60000002" /><stop
         id="stop260"
         style="stop-color:#426889;stop-opacity:1"
         offset="1" /></linearGradient><clipPath
       id="clipPath268"><path
         d="m 0.015015,439.654 595.260995,0 0,-439.654 -595.260995,0 0,439.654 z"
         id="path270" /></clipPath><clipPath
       id="clipPath280"><path
         d="m 0.015015,841.89 595.260995,0 0,-841.89 -595.260995,0 0,841.89 z"
         id="path282" /></clipPath></defs><g
     transform="matrix(1.25,0,0,-1.25,-191.3575,957.14787)"
     id="g10"><g
       transform="matrix(1.8957346,0,0,1.8957346,-244.61258,-627.75659)"
       id="g12"><g
         clip-path="url(#clipPath16)"
         id="g14"><g
           transform="matrix(101.07,0,0,28.746,207.642,708.447)"
           id="g20" /></g></g><g
       transform="matrix(1.8957346,0,0,1.8957346,261.577,707.27659)"
       id="g48"><path
         d="m 0,0 c -1.975,-0.493 -3.105,-0.987 -6.138,-0.987 -10.374,0 -12.913,10.795 -12.913,18.204 l 19.687,0 c 0,2.753 0,13.548 -11.925,13.548 -9.81,0 -13.62,-6.985 -13.62,-16.582 0,-12.35 6.564,-18.558 16.584,-18.558 3.809,0 5.572,0.563 8.325,1.339 L 0,0 z m -18.91,20.322 c 0,1.836 1.27,7.622 7.267,7.622 5.998,0 6.845,-4.729 6.845,-7.622"
         id="path50"
         style="fill:#426889;fill-opacity:1;fill-rule:evenodd;stroke:none" /></g><g
       transform="matrix(1.8957346,0,0,1.8957346,309.05946,763.32588)"
       id="g52"><path
         d="m 0,0 c -1.342,0.282 -4.307,1.198 -7.833,1.198 -7.62,0 -11.502,-3.385 -11.502,-9.171 0,-5.716 4.868,-7.479 9.104,-9.951 3.95,-2.328 7.196,-3.668 7.196,-7.056 0,-3.81 -3.174,-5.433 -7.056,-5.433 -4.376,0 -8.679,2.752 -9.385,3.175 l 0,-5.292 c 1.623,-0.635 4.517,-1.411 9.104,-1.411 8.819,0 12.559,4.729 12.559,9.951 0,4.726 -2.542,7.054 -5.785,8.96 -5.858,3.529 -10.726,4.658 -10.726,8.679 0,2.754 2.751,4.023 5.786,4.023 3.949,0 7.408,-2.047 8.538,-2.682"
         id="path54"
         style="fill:#426889;fill-opacity:1;fill-rule:nonzero;stroke:none" /></g><path
       d="m 327.28695,700.45384 9.89573,0 0,63.67393 -9.89573,0 0,-63.67393 z"
       id="path56"
       style="fill:#426889;fill-opacity:1;fill-rule:nonzero;stroke:none" /><g
       transform="matrix(1.8957346,0,0,1.8957346,388.94003,763.32588)"
       id="g58"><path
         d="m 0,0 c -1.342,0.282 -4.305,1.198 -7.832,1.198 -7.621,0 -11.503,-3.385 -11.503,-9.171 0,-5.716 4.869,-7.479 9.103,-9.951 3.953,-2.328 7.197,-3.668 7.197,-7.056 0,-3.81 -3.176,-5.433 -7.056,-5.433 -4.375,0 -8.679,2.752 -9.384,3.175 l 0,-5.292 c 1.622,-0.635 4.515,-1.411 9.102,-1.411 8.82,0 12.56,4.729 12.56,9.951 0,4.726 -2.54,7.054 -5.785,8.96 -5.858,3.529 -10.727,4.658 -10.727,8.679 0,2.754 2.752,4.023 5.786,4.023 3.951,0 7.41,-2.047 8.539,-2.682"
         id="path60"
         style="fill:#426889;fill-opacity:1;fill-rule:nonzero;stroke:none" /></g><g
       transform="matrix(1.8957346,0,0,1.8957346,163.58837,733.21403)"
       id="g62"><path
         d="m 0,0 c 0,5.856 1.694,14.075 7.269,14.075 5.927,0 8.184,-8.078 8.184,-14.075 0,-6.28 -2.398,-14.147 -8.114,-14.147 C 1.764,-14.147 0,-5.786 0,0 m 14.769,-13.73 c -1.554,-1.727 -3.885,-3.489 -6.907,-3.489 -8.539,0 -13.402,8.117 -13.402,17.5 0,9.385 5.075,16.865 13.191,16.865 3.555,0 5.729,-1.516 7.112,-3.24 l 0,2.449 5.223,0 0,-33.8 c 0,-10.23 -5.223,-14.888 -15.454,-14.888 -3.599,0 -6.564,0.564 -8.749,1.27 l 0,5.786 c 2.892,-1.622 5.855,-3.176 9.808,-3.176 9.172,0 9.172,8.892 9.172,11.362"
         id="path64"
         style="fill:#426889;fill-opacity:1;fill-rule:evenodd;stroke:none" /></g><g
       transform="matrix(1.8957346,0,0,1.8957346,244.64765,676.34534)"
       id="g66"><path
         d="m 0,0 1.379,0 0,-7.75 3.198,0 0,-0.903 -4.577,0"
         id="path68"
         style="fill:#231f20;fill-opacity:1;fill-rule:nonzero;stroke:none" /></g><g
       transform="matrix(1.8957346,0,0,1.8957346,260.85997,667.97757)"
       id="g70"><path
         d="M 0,0 C 0,0.464 -0.163,1.342 -1.104,1.342 -2.082,1.342 -2.27,0.338 -2.295,0 L 0,0 z m 1.128,-4.038 c -0.526,-0.214 -0.99,-0.339 -1.743,-0.339 -1.655,0 -2.984,0.978 -2.984,3.386 0,1.655 0.664,2.859 2.545,2.859 1.932,0 2.295,-1.291 2.295,-2.445 l -3.574,0 c 0,-1.179 0.527,-3.135 2.32,-3.135 0.389,0 0.765,0.075 1.141,0.25"
         id="path72"
         style="fill:#231f20;fill-opacity:1;fill-rule:nonzero;stroke:none" /></g><path
       d="m 265.7794,671.25719 2.4019,0 0,-11.31564 -2.4019,0 0,11.31564 z m -0.0948,5.08815 2.59147,0 0,-2.37725 -2.59147,0 0,2.37725 z"
       id="path74"
       style="fill:#231f20;fill-opacity:1;fill-rule:nonzero;stroke:none" /><g
       transform="matrix(1.8957346,0,0,1.8957346,276.21732,660.67899)"
       id="g76"><path
         d="M 0,0 C 1.028,0 1.279,1.354 1.279,2.571 1.279,3.624 1.04,4.991 0,4.991 -0.991,4.991 -1.229,3.699 -1.229,2.571 -1.229,1.053 -1.041,0.012 0,0 m -1.279,4.753 0.025,0 c 0.263,0.376 0.664,0.965 1.667,0.965 1.606,0 2.245,-1.354 2.245,-3.147 0,-2.208 -1.078,-3.098 -2.658,-3.098 -2.333,0 -2.546,1.555 -2.546,3.098 l 0,5.693 1.267,0"
         id="path78"
         style="fill:#231f20;fill-opacity:1;fill-rule:nonzero;stroke:none" /></g><g
       transform="matrix(1.8957346,0,0,1.8957346,283.75286,671.25719)"
       id="g80"><path
         d="m 0,0 1.266,0 0,-1.417 0.025,0 c 0.201,0.439 0.778,1.555 2.095,1.555 1.053,0 1.504,-0.877 1.504,-1.743 l 0,-4.364 -1.266,0 0,3.737 c 0,0.753 -0.113,1.43 -0.753,1.43 -1.254,0 -1.605,-1.956 -1.605,-2.697 l 0,-2.47 -1.266,0"
         id="path82"
         style="fill:#231f20;fill-opacity:1;fill-rule:nonzero;stroke:none" /></g><path
       d="m 296.4467,671.25719 2.4019,0 0,-11.31564 -2.4019,0 0,11.31564 z m -0.0948,5.08815 2.59147,0 0,-2.37725 -2.59147,0 0,2.37725 z"
       id="path84"
       style="fill:#231f20;fill-opacity:1;fill-rule:nonzero;stroke:none" /><g
       transform="matrix(1.8957346,0,0,1.8957346,301.00973,661.51122)"
       id="g86"><path
         d="m 0,0 2.96,4.389 -2.772,0 0,0.752 4.102,0 0,-0.752 L 1.33,0 l 3.047,0 0,-0.828 -4.377,0"
         id="path88"
         style="fill:#231f20;fill-opacity:1;fill-rule:nonzero;stroke:none" /></g><path
       d="m 310.78035,664.58864 8.15545,0 0,2.16304 -8.15545,0 0,-2.16304 z"
       id="path90"
       style="fill:#231f20;fill-opacity:1;fill-rule:nonzero;stroke:none" /><path
       d="m 321.92917,659.94155 2.61611,0 0,16.40379 -2.61611,0 0,-16.40379 z"
       id="path92"
       style="fill:#231f20;fill-opacity:1;fill-rule:nonzero;stroke:none" /><g
       transform="matrix(1.8957346,0,0,1.8957346,328.08651,671.25719)"
       id="g94"><path
         d="m 0,0 1.267,0 0,-1.417 0.025,0 c 0.2,0.439 0.778,1.555 2.094,1.555 1.054,0 1.505,-0.877 1.505,-1.743 l 0,-4.364 -1.267,0 0,3.737 c 0,0.753 -0.112,1.43 -0.752,1.43 -1.254,0 -1.605,-1.956 -1.605,-2.697 l 0,-2.47 -1.267,0"
         id="path96"
         style="fill:#231f20;fill-opacity:1;fill-rule:nonzero;stroke:none" /></g><g
       transform="matrix(1.8957346,0,0,1.8957346,346.34812,669.02402)"
       id="g98"><path
         d="m 0,0 c -0.426,0.288 -0.902,0.589 -1.504,0.589 -0.402,0 -0.853,-0.176 -0.853,-0.627 0,-1.079 2.734,-1.179 2.734,-3.085 0,-1.279 -1.004,-1.806 -2.27,-1.806 -0.765,0 -1.292,0.163 -1.593,0.263 l 0,1.167 c 0.364,-0.251 0.953,-0.627 1.656,-0.627 0.727,0 1.028,0.376 1.028,0.752 0,1.054 -2.696,1.267 -2.696,2.972 0,0.903 0.602,1.718 2.094,1.718 0.64,0 1.191,-0.175 1.404,-0.238"
         id="path100"
         style="fill:#231f20;fill-opacity:1;fill-rule:nonzero;stroke:none" /></g><g
       transform="matrix(1.8957346,0,0,1.8957346,355.57277,659.84677)"
       id="g102"><path
         d="m 0,0 c -0.251,-0.063 -0.589,-0.088 -0.878,-0.088 -1.191,0 -1.881,0.364 -1.881,1.518 l 0,3.937 -0.953,0 0,0.652 0.953,0 0,1.405 1.267,0.765 0,-2.17 1.63,0 0,-0.652 -1.63,0 0,-3.436 c 0,-0.878 0.087,-1.304 0.903,-1.304 0.2,0 0.414,0.025 0.589,0.1"
         id="path104"
         style="fill:#231f20;fill-opacity:1;fill-rule:nonzero;stroke:none" /></g><path
       d="m 357.87798,671.25719 2.4019,0 0,-11.31564 -2.4019,0 0,11.31564 z m -0.0948,5.08815 2.59147,0 0,-2.37725 -2.59147,0 0,2.37725 z"
       id="path106"
       style="fill:#231f20;fill-opacity:1;fill-rule:nonzero;stroke:none" /><g
       transform="matrix(1.8957346,0,0,1.8957346,369.66945,659.84677)"
       id="g108"><path
         d="m 0,0 c -0.251,-0.063 -0.589,-0.088 -0.878,-0.088 -1.191,0 -1.881,0.364 -1.881,1.518 l 0,3.937 -0.953,0 0,0.652 0.953,0 0,1.405 1.267,0.765 0,-2.17 1.63,0 0,-0.652 -1.63,0 0,-3.436 c 0,-0.878 0.088,-1.304 0.903,-1.304 0.201,0 0.414,0.025 0.589,0.1"
         id="path110"
         style="fill:#231f20;fill-opacity:1;fill-rule:nonzero;stroke:none" /></g><g
       transform="matrix(1.8957346,0,0,1.8957346,378.70452,662.62781)"
       id="g112"><path
         d="m 0,0 -0.026,0 c -0.2,-0.439 -0.764,-1.555 -2.081,-1.555 -1.054,0 -1.505,0.878 -1.505,1.743 l 0,4.364 1.267,0 0,-3.737 c 0,-0.752 0.112,-1.429 0.752,-1.429 1.254,0 1.605,1.956 1.605,2.696 l 0,2.47 1.267,0 0,-5.969 -1.279,0"
         id="path114"
         style="fill:#231f20;fill-opacity:1;fill-rule:nonzero;stroke:none" /></g><g
       transform="matrix(1.8957346,0,0,1.8957346,390.37466,659.84677)"
       id="g116"><path
         d="m 0,0 c -0.25,-0.063 -0.589,-0.088 -0.877,-0.088 -1.192,0 -1.882,0.364 -1.882,1.518 l 0,3.937 -0.953,0 0,0.652 0.953,0 0,1.405 1.267,0.765 0,-2.17 1.63,0 0,-0.652 -1.63,0 0,-3.436 c 0,-0.878 0.088,-1.304 0.903,-1.304 0.201,0 0.414,0.025 0.589,0.1"
         id="path118"
         style="fill:#231f20;fill-opacity:1;fill-rule:nonzero;stroke:none" /></g><g
       transform="matrix(1.8957346,0,0,1.8957346,156.40012,646.28241)"
       id="g120"><path
         d="m 0,0 -1.041,0 0,0.652 1.041,0 0,0.564 c 0,1.104 0.264,2.258 2.27,2.258 0.514,0 0.966,-0.076 1.267,-0.139 l 0,-0.865 C 3.273,2.583 2.935,2.746 2.421,2.746 1.392,2.746 1.267,2.006 1.267,1.367 l 0,-0.715 1.693,0 0,-0.652 -1.693,0 0,-5.318 -1.267,0"
         id="path122"
         style="fill:#231f20;fill-opacity:1;fill-rule:nonzero;stroke:none" /></g><path
       d="m 169.42761,652.1535 2.59147,0 0,-2.4 -2.59147,0 0,2.4 z m -4.58768,0 2.59147,0 0,-2.4 -2.59147,0 0,2.4 z m 5.80095,-13.26446 -0.0474,0 c -0.38104,-0.83223 -1.45024,-2.94976 -3.94692,-2.94976 -1.99621,0 -2.85308,1.66445 -2.85308,3.30616 l 0,8.27298 2.40189,0 0,-7.08436 c 0,-1.42748 0.21233,-2.7109 1.4256,-2.7109 2.37725,0 3.04455,3.70806 3.04455,5.1109 l 0,4.68436 2.4,0 0,-11.31753 -2.42465,0"
       id="path124"
       style="fill:#231f20;fill-opacity:1;fill-rule:nonzero;stroke:none" /><g
       transform="matrix(1.8957346,0,0,1.8957346,176.36979,647.51842)"
       id="g126"><path
         d="m 0,0 1.266,0 0,-1.518 0.025,0 c 0.402,0.803 0.841,1.568 1.932,1.656 l 0,-1.317 C 2.006,-1.217 1.266,-1.631 1.266,-3.236 l 0,-2.734 -1.266,0"
         id="path128"
         style="fill:#231f20;fill-opacity:1;fill-rule:nonzero;stroke:none" /></g><g
       transform="matrix(1.8957346,0,0,1.8957346,199.26268,650.18004)"
       id="g130"><path
         d="m 0,0 c -0.314,0.176 -1.204,0.59 -2.144,0.59 -0.766,0 -1.305,-0.439 -1.305,-1.091 0,-1.819 4.076,-1.769 4.076,-4.477 0,-1.819 -1.405,-2.534 -3.148,-2.534 -0.978,0 -1.931,0.226 -2.194,0.327 l 0,1.341 c 0.388,-0.226 1.392,-0.765 2.408,-0.765 0.902,0 1.555,0.376 1.555,1.254 0,1.982 -4.076,1.857 -4.076,4.553 0,1.404 1.041,2.219 2.834,2.219 0.803,0 1.655,-0.163 1.994,-0.225"
         id="path132"
         style="fill:#231f20;fill-opacity:1;fill-rule:nonzero;stroke:none" /></g><g
       transform="matrix(1.8957346,0,0,1.8957346,206.79823,636.93833)"
       id="g134"><path
         d="M 0,0 C 1.129,0 1.267,1.505 1.267,2.596 1.267,3.687 1.129,5.192 0,5.192 -1.116,5.192 -1.254,3.687 -1.254,2.596 -1.254,1.505 -1.116,0 0,0 m -2.634,2.596 c 0,2.019 0.878,3.123 2.634,3.123 1.756,0 2.646,-1.104 2.646,-3.123 0,-2.019 -0.89,-3.123 -2.646,-3.123 -1.756,0 -2.634,1.104 -2.634,3.123"
         id="path136"
         style="fill:#231f20;fill-opacity:1;fill-rule:nonzero;stroke:none" /></g><g
       transform="matrix(1.8957346,0,0,1.8957346,213.02572,637.77056)"
       id="g138"><path
         d="m 0,0 2.96,4.389 -2.772,0 0,0.753 4.101,0 0,-0.753 L 1.33,0 l 3.047,0 0,-0.828 -4.377,0"
         id="path140"
         style="fill:#231f20;fill-opacity:1;fill-rule:nonzero;stroke:none" /></g><path
       d="m 223.46173,647.51842 2.4019,0 0,-11.31753 -2.4019,0 0,11.31753 z m -0.0948,5.08626 2.59147,0 0,-2.37725 -2.59147,0 0,2.37725 z"
       id="path142"
       style="fill:#231f20;fill-opacity:1;fill-rule:nonzero;stroke:none" /><g
       transform="matrix(1.8957346,0,0,1.8957346,234.89681,641.50326)"
       id="g144"><path
         d="m 0,0 c -0.527,-0.038 -1.956,-0.151 -1.956,-1.254 0,-0.539 0.313,-0.891 0.727,-0.891 0.439,0 1.229,0.427 1.229,1.442 L 0,0 z m 0,-1.969 -0.025,0 c -0.2,-0.351 -0.727,-0.966 -1.68,-0.966 -0.941,0 -1.631,0.665 -1.631,1.493 0,1.843 2.546,1.931 3.336,1.969 l 0,0.526 c 0,0.653 0,1.731 -0.84,1.731 -0.777,0 -0.916,-0.602 -0.965,-1.304 l -1.33,0 c 0.063,0.89 0.414,1.831 2.295,1.831 1.944,0 2.107,-1.091 2.107,-2.258 l 0,-3.85 -1.267,0"
         id="path146"
         style="fill:#231f20;fill-opacity:1;fill-rule:nonzero;stroke:none" /></g><path
       d="m 240.67311,636.20278 2.40189,0 0,16.4019 -2.40189,0 0,-16.4019 z"
       id="path148"
       style="fill:#231f20;fill-opacity:1;fill-rule:nonzero;stroke:none" /><g
       transform="matrix(1.8957346,0,0,1.8957346,245.73662,647.51842)"
       id="g150"><path
         d="m 0,0 1.204,0 0.991,-4.314 0.025,0 1.179,4.314 0.915,0 1.242,-4.314 0.025,0 L 6.509,0 7.575,0 6.183,-5.97 l -1.104,0 -1.266,4.038 -0.025,0 -1.129,-4.038 -1.104,0"
         id="path152"
         style="fill:#231f20;fill-opacity:1;fill-rule:nonzero;stroke:none" /></g><path
       d="m 262.73377,647.51842 2.4019,0 0,-11.31753 -2.4019,0 0,11.31753 z m -0.0948,5.08626 2.59146,0 0,-2.37725 -2.59146,0 0,2.37725 z"
       id="path154"
       style="fill:#231f20;fill-opacity:1;fill-rule:nonzero;stroke:none" /><g
       transform="matrix(1.8957346,0,0,1.8957346,274.26932,645.28335)"
       id="g156"><path
         d="m 0,0 c -0.426,0.288 -0.903,0.589 -1.505,0.589 -0.401,0 -0.853,-0.175 -0.853,-0.627 0,-1.078 2.734,-1.179 2.734,-3.085 0,-1.279 -1.003,-1.806 -2.27,-1.806 -0.765,0 -1.291,0.163 -1.592,0.264 l 0,1.166 c 0.363,-0.251 0.952,-0.627 1.655,-0.627 0.727,0 1.028,0.376 1.028,0.753 0,1.053 -2.696,1.266 -2.696,2.971 0,0.903 0.602,1.719 2.094,1.719 0.64,0 1.192,-0.176 1.405,-0.239"
         id="path158"
         style="fill:#231f20;fill-opacity:1;fill-rule:nonzero;stroke:none" /></g><g
       transform="matrix(1.8957346,0,0,1.8957346,283.68354,645.28335)"
       id="g160"><path
         d="m 0,0 c -0.426,0.288 -0.903,0.589 -1.505,0.589 -0.401,0 -0.853,-0.175 -0.853,-0.627 0,-1.078 2.734,-1.179 2.734,-3.085 0,-1.279 -1.003,-1.806 -2.27,-1.806 -0.765,0 -1.291,0.163 -1.592,0.264 l 0,1.166 c 0.363,-0.251 0.952,-0.627 1.655,-0.627 0.728,0 1.028,0.376 1.028,0.753 0,1.053 -2.696,1.266 -2.696,2.971 0,0.903 0.602,1.719 2.094,1.719 0.64,0 1.192,-0.176 1.405,-0.239"
         id="path162"
         style="fill:#231f20;fill-opacity:1;fill-rule:nonzero;stroke:none" /></g><g
       transform="matrix(1.8957346,0,0,1.8957346,292.95368,644.23691)"
       id="g164"><path
         d="M 0,0 C 0,0.464 -0.162,1.342 -1.103,1.342 -2.081,1.342 -2.27,0.339 -2.294,0 L 0,0 z m 1.129,-4.038 c -0.527,-0.213 -0.991,-0.339 -1.743,-0.339 -1.656,0 -2.985,0.978 -2.985,3.386 0,1.656 0.665,2.86 2.546,2.86 1.931,0 2.295,-1.292 2.295,-2.446 l -3.574,0 c 0,-1.179 0.527,-3.135 2.32,-3.135 0.389,0 0.765,0.075 1.141,0.251"
         id="path166"
         style="fill:#231f20;fill-opacity:1;fill-rule:nonzero;stroke:none" /></g><g
       transform="matrix(1.8957346,0,0,1.8957346,297.75557,647.51842)"
       id="g168"><path
         d="m 0,0 1.267,0 0,-1.417 0.025,0 c 0.2,0.439 0.777,1.555 2.094,1.555 1.053,0 1.505,-0.878 1.505,-1.743 l 0,-4.365 -1.267,0 0,3.738 c 0,0.752 -0.113,1.429 -0.752,1.429 -1.254,0 -1.605,-1.956 -1.605,-2.696 l 0,-2.471 -1.267,0"
         id="path170"
         style="fill:#231f20;fill-opacity:1;fill-rule:nonzero;stroke:none" /></g><g
       transform="matrix(1.8957346,0,0,1.8957346,316.01718,645.28335)"
       id="g172"><path
         d="m 0,0 c -0.426,0.288 -0.903,0.589 -1.504,0.589 -0.402,0 -0.853,-0.175 -0.853,-0.627 0,-1.078 2.734,-1.179 2.734,-3.085 0,-1.279 -1.004,-1.806 -2.27,-1.806 -0.765,0 -1.292,0.163 -1.593,0.264 l 0,1.166 c 0.364,-0.251 0.953,-0.627 1.655,-0.627 0.728,0 1.029,0.376 1.029,0.753 0,1.053 -2.696,1.266 -2.696,2.971 0,0.903 0.602,1.719 2.094,1.719 0.639,0 1.191,-0.176 1.404,-0.239"
         id="path174"
         style="fill:#231f20;fill-opacity:1;fill-rule:nonzero;stroke:none" /></g><g
       transform="matrix(1.8957346,0,0,1.8957346,327.1679,636.50989)"
       id="g176"><path
         d="m 0,0 c -0.514,-0.188 -1.054,-0.301 -1.593,-0.301 -1.893,0 -2.997,1.142 -2.997,3.361 0,1.781 0.815,2.885 2.533,2.885 1.605,0 2.145,-0.853 2.145,-2.082 l -1.33,0 c 0,0.715 -0.075,1.555 -0.865,1.555 -0.728,0 -1.104,-0.853 -1.104,-1.931 0,-1.455 0.615,-3.123 2.145,-3.123 0.363,0 0.715,0.088 1.066,0.226"
         id="path178"
         style="fill:#231f20;fill-opacity:1;fill-rule:nonzero;stroke:none" /></g><g
       transform="matrix(1.8957346,0,0,1.8957346,329.2115,652.60468)"
       id="g180"><path
         d="m 0,0 1.267,0 0,-4.1 0.025,0 c 0.2,0.438 0.777,1.555 2.094,1.555 1.054,0 1.505,-0.878 1.505,-1.744 l 0,-4.364 -1.267,0 0,3.737 c 0,0.753 -0.112,1.43 -0.752,1.43 -1.254,0 -1.605,-1.956 -1.605,-2.696 l 0,-2.471 -1.267,0"
         id="path182"
         style="fill:#231f20;fill-opacity:1;fill-rule:nonzero;stroke:none" /></g><g
       transform="matrix(1.8957346,0,0,1.8957346,347.37453,641.50326)"
       id="g184"><path
         d="m 0,0 c -0.527,-0.038 -1.957,-0.151 -1.957,-1.254 0,-0.539 0.314,-0.891 0.728,-0.891 0.439,0 1.229,0.427 1.229,1.442 L 0,0 z m 0,-1.969 -0.026,0 c -0.2,-0.351 -0.727,-0.966 -1.68,-0.966 -0.94,0 -1.63,0.665 -1.63,1.493 0,1.843 2.546,1.931 3.336,1.969 l 0,0.526 c 0,0.653 0,1.731 -0.841,1.731 -0.777,0 -0.915,-0.602 -0.965,-1.304 l -1.33,0 c 0.063,0.89 0.414,1.831 2.295,1.831 1.944,0 2.107,-1.091 2.107,-2.258 l 0,-3.85 -1.266,0"
         id="path186"
         style="fill:#231f20;fill-opacity:1;fill-rule:nonzero;stroke:none" /></g><g
       transform="matrix(1.8957346,0,0,1.8957346,353.86363,646.28241)"
       id="g188"><path
         d="m 0,0 -1.041,0 0,0.652 1.041,0 0,0.564 c 0,1.104 0.263,2.258 2.27,2.258 0.514,0 0.965,-0.076 1.266,-0.139 l 0,-0.865 C 3.273,2.583 2.934,2.746 2.42,2.746 1.392,2.746 1.267,2.006 1.267,1.367 l 0,-0.715 1.693,0 0,-0.652 -1.693,0 0,-5.318 -1.267,0"
         id="path190"
         style="fill:#231f20;fill-opacity:1;fill-rule:nonzero;stroke:none" /></g><g
       transform="matrix(1.8957346,0,0,1.8957346,367.20012,636.1061)"
       id="g192"><path
         d="m 0,0 c -0.251,-0.063 -0.59,-0.088 -0.878,-0.088 -1.191,0 -1.881,0.364 -1.881,1.518 l 0,3.938 -0.953,0 0,0.652 0.953,0 0,1.404 1.267,0.765 0,-2.169 1.63,0 0,-0.652 -1.63,0 0,-3.437 c 0,-0.877 0.087,-1.304 0.902,-1.304 0.201,0 0.414,0.025 0.59,0.1"
         id="path194"
         style="fill:#231f20;fill-opacity:1;fill-rule:nonzero;stroke:none" /></g><g
       transform="matrix(1.8957346,0,0,1.8957346,375.37832,644.23691)"
       id="g196"><path
         d="M 0,0 C 0,0.464 -0.163,1.342 -1.104,1.342 -2.082,1.342 -2.27,0.339 -2.295,0 L 0,0 z m 1.128,-4.038 c -0.526,-0.213 -0.99,-0.339 -1.743,-0.339 -1.655,0 -2.985,0.978 -2.985,3.386 0,1.656 0.665,2.86 2.546,2.86 1.931,0 2.295,-1.292 2.295,-2.446 l -3.574,0 c 0,-1.179 0.527,-3.135 2.32,-3.135 0.389,0 0.765,0.075 1.141,0.251"
         id="path198"
         style="fill:#231f20;fill-opacity:1;fill-rule:nonzero;stroke:none" /></g><g
       transform="matrix(1.8957346,0,0,1.8957346,-541.58661,-692.16499)"
       id="g200"><g
         clip-path="url(#clipPath204)"
         id="g202"><g
           transform="translate(486.232,706.683)"
           id="g208"><path
             d="m 0,0 1.266,0 0,-1.417 0.025,0 c 0.201,0.439 0.778,1.555 2.095,1.555 1.053,0 1.505,-0.878 1.505,-1.743 l 0,-4.365 -1.267,0 0,3.738 c 0,0.752 -0.113,1.429 -0.752,1.429 -1.255,0 -1.606,-1.956 -1.606,-2.696 l 0,-2.471 -1.266,0"
             id="path210"
             style="fill:#231f20;fill-opacity:1;fill-rule:nonzero;stroke:none" /></g></g></g></g></svg>