<?xml version="1.0" encoding="UTF-8"?>
<svg width="3245.7" height="1920" version="1.1" viewBox="0 0 3245.6514 1920.0009" xmlns="http://www.w3.org/2000/svg">
 <g transform="translate(1181.3 700.56)">
  <g transform="matrix(3.6682 0 0 3.6682 -1177.9 -692.23)">
   <path d="m293.14-1.9785c-11.558 0.29331-20.037 11.629-19.115 22.78-10.825 124.5-21.916 248.98-32.576 373.48 0.03 5.4283 2.9169 10.763 7.543 13.637-18.404 3.7908-35.751 11.543-53.745 16.856-64.457 21.526-129.08 42.606-193.44 64.408-4.9375 2.3695-1.67 8.8287-1.7246 13.146 1.0845 8.1651 5.3357 19.461 15.375 18.791 191.02-0.10445 382.04 0.20872 573.05-0.15625 19.695-1.6278 37.597-11.044 56.391-16.408 62.763-21.356 125.77-42.116 188.38-63.84 10.573-6.5361 11.272-20.698 12.297-31.623-1.1923-2.643-3.3732-0.93078-2.4824-2.5625 10.719-7.7336 7.5917-22.415 9.5166-33.721 10.39-119.51 21.044-239.02 31.269-358.54 0.24952-10.698-10.816-18.079-20.834-16.271-189.97 0.01435-379.94-0.028683-569.91 0.021484z" fill="#1a1a1a"/>
   <path d="m303.87 1.7242e-6h563.18c8.9608 0 15.551 7.1331 14.776 15.994l-32.945 376.57c-0.77519 8.8604-8.6132 15.994-17.574 15.994h-563.18c-8.9608 0-15.551-7.1331-14.776-15.994l32.945-376.57c0.77518-8.8604 8.6132-15.994 17.574-15.994z" fill="#b3b3b3"/>
   <path d="m843.21 409.31s0.72991 25.948-12.965 30.57l-224.82 75.891c-5.5713 1.8806-14.806 3.3442-20.686 3.3442h-570.27c-13.417 0-13.24-26.818-13.24-26.818" fill="#b3b3b3"/>
   <path d="m260.22 408.84h578.94c5.8799 0 6.121 1.4915 0.54074 3.3442l-234.28 77.782c-5.5804 1.8527-14.806 3.3442-20.686 3.3442h-578.94c-5.8798 0-6.1209-1.4915-0.54054-3.3442l234.28-77.782c5.5803-1.8527 14.806-3.3442 20.686-3.3442z" fill="#808080"/>
   <path d="m254.89 464.81c-7.8327 0.0344-19.838 2.7446-24.73 4.8839-18.901 6.362-38.909 12.752-57.182 19.098-5.4681 2.3888 2.269 2.8 9.7369 2.4678 55.413-0.0477 110.29 0.0948 166.04-0.0702 8.635-0.40726 18.941-3.1086 23.813-5.1332 18.58-6.2555 38.27-12.539 56.22-18.779 5.4914-2.3918-2.2544-2.8044-9.7258-2.4715-54.726 2e-3 -109.42-5e-3 -164.17 4e-3z" fill="#525252"/>
   <path d="m294.02 0h563.18c8.9608 0 15.551 7.1331 14.776 15.994l-32.945 376.57c-0.77519 8.8604-8.6132 15.994-17.574 15.994h-563.18c-8.9608 0-15.551-7.1331-14.776-15.994l32.945-376.57c0.77519-8.8604 8.6132-15.994 17.574-15.994z" fill="#808080"/>
   <path d="m306.61 36.408h531.65l-29.151 333.2h-531.65z" fill="#2a7fff"/>
   <path d="m282.27 385.91h33.818l-1.9812 22.645h-33.818z" fill="#999"/>
   <path d="m780.27 385.91h33.818l-1.9812 22.645h-33.818z" fill="#999"/>
   <path d="m306.61 36.407-29.151 333.2h110.83l148.63-333.2h-230.3z" fill="#59f"/>
   <path d="m253.49 465.44h170.66c4.7159 0 4.9093 1.1962 0.43361 2.6822l-59.724 19.829c-4.4757 1.486-11.875 2.6822-16.591 2.6822h-170.66c-4.7159 0-4.9094-1.1962-0.43371-2.6822l59.724-19.829c4.4757-1.486 11.875-2.6822 16.591-2.6822z" fill="#ccc"/>
   <path d="m253.46 424.33c-5.0598-0.054-12.301 1.7279-15.223 3.0998-4.6185 1.4967-14.001 4.1051-7.4817 4.2452 9.0829-0.18058 16.231 0.44582 26.622-0.24678 8.9357-1.1124 12.534-3.6754 18.859-5.3566 6.542-2.1468-3.587-1.7932-8.1397-1.746-4.8854 4e-3 -9.7286-7e-3 -14.636 4e-3z" fill="#333"/>
   <path d="m287.89 424.33c-5.06-0.0544-12.3 1.728-15.223 3.0998-4.6174 1.4966-14.004 4.1057-7.4817 4.2452 9.0805-0.18014 16.231 0.44491 26.617-0.24619 8.9397-1.1122 12.539-3.6756 18.864-5.3572 6.538-2.1464-3.5848-1.7936-8.1397-1.746-4.8854 4e-3 -9.7286-7e-3 -14.636 4e-3z" fill="#333"/>
   <path d="m322.32 424.33c-5.0611-0.054-12.299 1.7278-15.223 3.0998-4.6178 1.4968-14.003 4.1054-7.4817 4.2452 9.0829-0.18058 16.231 0.44582 26.622-0.24678 8.9364-1.1129 12.534-3.6753 18.859-5.3566 6.5398-2.1466-3.5856-1.7934-8.1396-1.746-4.8854 4e-3 -9.7286-7e-3 -14.636 4e-3z" fill="#333"/>
   <path d="m356.75 424.33c-5.0596-0.054-12.301 1.7281-15.224 3.0998-4.6181 1.4967-14 4.1051-7.4817 4.2452 9.081-0.18008 16.232 0.44485 26.619-0.24619 8.9382-1.1124 12.536-3.6757 18.862-5.3572 6.542-2.1467-3.5846-1.7933-8.1377-1.746-4.8861 4e-3 -9.7299-7e-3 -14.638 4e-3z" fill="#333"/>
   <path d="m391.19 424.33c-5.0597-0.0545-12.3 1.7281-15.224 3.0998-4.617 1.4966-14.004 4.1058-7.4817 4.2452 9.0829-0.18058 16.231 0.44582 26.622-0.24678 8.9364-1.1131 12.534-3.6753 18.859-5.3566 6.5391-2.1466-3.5851-1.7935-8.1396-1.746-4.8854 4e-3 -9.7286-7e-3 -14.636 4e-3z" fill="#333"/>
   <path d="m425.62 424.33c-5.0596-0.054-12.301 1.7281-15.223 3.0998-4.6182 1.4967-14 4.1051-7.4817 4.2452 9.0829-0.18061 16.231 0.44589 26.622-0.24678 8.9357-1.1124 12.534-3.6754 18.859-5.3566 6.5421-2.1469-3.5863-1.7933-8.1397-1.746-4.8854 4e-3 -9.7286-7e-3 -14.636 4e-3z" fill="#333"/>
   <path d="m460.05 424.33c-5.06-0.0544-12.3 1.728-15.223 3.0998-4.6174 1.4966-14.004 4.1057-7.4817 4.2452 9.0805-0.18014 16.231 0.44491 26.617-0.24619 8.9389-1.112 12.539-3.6758 18.864-5.3572 6.5391-2.1466-3.5851-1.7935-8.1397-1.746-4.8854 4e-3 -9.7286-7e-3 -14.636 4e-3z" fill="#333"/>
   <path d="m494.48 424.33c-5.0597-0.054-12.301 1.7279-15.223 3.0998-4.6185 1.4967-14.001 4.1051-7.4817 4.2452 9.0829-0.18058 16.231 0.44582 26.622-0.24678 8.9364-1.1129 12.534-3.6753 18.859-5.3566 6.5398-2.1466-3.5856-1.7934-8.1396-1.746-4.8854 4e-3 -9.7286-7e-3 -14.636 4e-3z" fill="#333"/>
   <path d="m528.92 424.33c-5.0593-0.0541-12.301 1.7281-15.223 3.0998-4.6182 1.4966-14.001 4.1051-7.4818 4.2452 9.0811-0.18011 16.232 0.44488 26.619-0.24619 8.9382-1.1123 12.536-3.6757 18.862-5.3572 6.5421-2.1467-3.5846-1.7934-8.1377-1.746-4.8861 4e-3 -9.7299-7e-3 -14.638 4e-3z" fill="#333"/>
   <path d="m563.35 424.33c-5.0611-0.054-12.299 1.7278-15.224 3.0998-4.6178 1.4968-14.003 4.1054-7.4817 4.2452 9.083-0.18058 16.231 0.44582 26.622-0.24678 8.9364-1.1131 12.534-3.6753 18.859-5.3566 6.539-2.1466-3.5852-1.7935-8.1397-1.746-4.8854 4e-3 -9.7286-7e-3 -14.636 4e-3z" fill="#333"/>
   <path d="m597.78 424.33c-5.0596-0.054-12.301 1.7281-15.223 3.0998-4.6182 1.4967-14 4.1051-7.4817 4.2452 9.0829-0.18068 16.232 0.44595 26.622-0.24678 8.9357-1.1124 12.534-3.6754 18.859-5.3566 6.5425-2.147-3.5862-1.7933-8.1396-1.746-4.8855 4e-3 -9.7286-7e-3 -14.636 4e-3z" fill="#333"/>
   <path d="m632.22 424.33c-5.06-0.0544-12.3 1.728-15.223 3.0998-4.6174 1.4966-14.004 4.1057-7.4817 4.2452 9.0829-0.18058 16.231 0.44582 26.622-0.24678 8.9363-1.1131 12.534-3.6753 18.859-5.3566 6.539-2.1466-3.5852-1.7935-8.1397-1.746-4.8854 4e-3 -9.7286-7e-3 -14.636 4e-3z" fill="#333"/>
   <path d="m666.65 424.33c-5.0597-0.054-12.301 1.7279-15.223 3.0998-4.6185 1.4967-14.001 4.1051-7.4817 4.2452 9.0829-0.18058 16.231 0.44582 26.622-0.24678 8.9357-1.1124 12.534-3.6754 18.859-5.3566 6.5421-2.1468-3.5869-1.7932-8.1396-1.746-4.8854 4e-3 -9.7286-7e-3 -14.636 4e-3z" fill="#333"/>
   <path d="m701.08 424.33c-5.0596-0.0538-12.301 1.728-15.223 3.0998-4.6191 1.4968-13.999 4.1048-7.4817 4.2452 9.0811-0.18014 16.232 0.44491 26.618-0.24619 8.9398-1.1122 12.539-3.6756 18.864-5.3572 6.5381-2.1464-3.5847-1.7936-8.1396-1.746-4.8861 4e-3 -9.7299-7e-3 -14.638 4e-3z" fill="#333"/>
   <path d="m735.51 424.33c-5.0611-0.054-12.299 1.7278-15.223 3.0998-4.6179 1.4968-14.003 4.1054-7.4818 4.2452 12.36-0.0795 23.687 0.25106 36.864-0.13048 8.9385-0.80406 13.092-3.533 19.104-5.1578 7.7025-2.1834-0.9533-2.2776-6.1905-2.0611-9.0289 3e-3 -18.021-6e-3 -27.072 4e-3z" fill="#333"/>
   <path d="m232.03 431.44c-5.0596-0.054-12.301 1.7281-15.223 3.0999-4.6235 1.4972-14.008 4.1086-7.472 4.2452 15.2-0.062 29.529 0.21972 45.475-0.1157 8.9859-0.7676 13.262-3.5416 19.279-5.1726 7.7049-2.1837-0.95446-2.2773-6.1906-2.061-11.961 3e-3 -23.886-6e-3 -35.868 4e-3z" fill="#333"/>
   <path d="m286.69 431.44c-5.0596-0.0538-12.301 1.728-15.224 3.0999-4.6244 1.4973-14.006 4.1083-7.4719 4.2452 9.078-0.18004 16.226 0.44457 26.609-0.24618 8.9378-1.1125 12.537-3.6757 18.862-5.3572 6.5424-2.1468-3.5846-1.7933-8.1376-1.7459-4.886 4e-3 -9.7299-7e-3 -14.638 4e-3z" fill="#333"/>
   <path d="m321.13 431.44c-5.061-0.054-12.299 1.7278-15.223 3.0999-4.623 1.4973-14.01 4.1088-7.4719 4.2452 9.0797-0.18048 16.225 0.44548 26.612-0.24678 8.9361-1.1131 12.534-3.6752 18.859-5.3566 6.5399-2.1467-3.5857-1.7934-8.1396-1.7459-4.8853 4e-3 -9.7285-7e-3 -14.636 4e-3z" fill="#333"/>
   <path d="m355.56 431.44c-5.0596-0.054-12.301 1.7281-15.223 3.0999-4.6235 1.4972-14.008 4.1086-7.472 4.2452 9.0797-0.18051 16.226 0.44551 26.612-0.24678 8.9352-1.1125 12.534-3.6754 18.859-5.3566 6.5426-2.147-3.5866-1.7931-8.1398-1.7459-4.8853 4e-3 -9.7285-7e-3 -14.636 4e-3z" fill="#333"/>
   <path d="m389.99 431.44c-5.06-0.0544-12.3 1.728-15.223 3.0999-4.6228 1.4971-14.011 4.1092-7.472 4.2452 9.0798-0.18048 16.225 0.44548 26.612-0.24678 8.9359-1.1132 12.535-3.6752 18.859-5.3566 6.539-2.1466-3.5853-1.7934-8.1398-1.7459-4.8853 4e-3 -9.7285-7e-3 -14.636 4e-3z" fill="#333"/>
   <path d="m424.42 431.44c-5.0598-0.054-12.301 1.728-15.223 3.0999-4.6238 1.4972-14.008 4.1086-7.4719 4.2452 9.0797-0.18048 16.225 0.44548 26.612-0.24678 8.9352-1.1125 12.534-3.6754 18.859-5.3566 6.5421-2.1469-3.587-1.7931-8.1396-1.7459-4.8853 4e-3 -9.7285-7e-3 -14.636 4e-3z" fill="#333"/>
   <path d="m458.86 431.44c-5.0595-0.0538-12.301 1.728-15.224 3.0999-4.6244 1.4973-14.006 4.1083-7.4719 4.2452 9.078-0.18004 16.226 0.44457 26.609-0.24618 8.9395-1.1124 12.539-3.6756 18.864-5.3572 6.5382-2.1465-3.5849-1.7935-8.1396-1.7459-4.886 4e-3 -9.7298-7e-3 -14.638 4e-3z" fill="#333"/>
   <path d="m493.29 431.44c-5.0611-0.054-12.299 1.7278-15.224 3.0999-4.623 1.4973-14.01 4.1088-7.4719 4.2452 9.0797-0.18048 16.225 0.44548 26.612-0.24678 8.9362-1.1131 12.534-3.6752 18.859-5.3566 6.5399-2.1467-3.5857-1.7934-8.1396-1.7459-4.8853 4e-3 -9.7285-7e-3 -14.636 4e-3z" fill="#333"/>
   <path d="m527.72 431.44c-5.0596-0.054-12.301 1.7281-15.223 3.0999-4.6235 1.4972-14.008 4.1086-7.472 4.2452 9.0797-0.18051 16.226 0.44551 26.612-0.24678 8.9352-1.1125 12.534-3.6754 18.859-5.3566 6.5426-2.147-3.5866-1.7931-8.1398-1.7459-4.8853 4e-3 -9.7285-7e-3 -14.636 4e-3z" fill="#333"/>
   <path d="m562.15 431.44c-5.0601-0.0543-12.3 1.728-15.223 3.0999-4.6233 1.4974-14.01 4.1088-7.472 4.2452 9.0798-0.18048 16.225 0.44548 26.612-0.24678 8.9359-1.1132 12.535-3.6752 18.859-5.3566 6.539-2.1466-3.5853-1.7934-8.1398-1.7459-4.8853 4e-3 -9.7285-7e-3 -14.636 4e-3z" fill="#333"/>
   <path d="m596.59 431.44c-5.0596-0.054-12.301 1.7281-15.223 3.0999-4.6235 1.4972-14.008 4.1086-7.4719 4.2452 9.0796-0.18042 16.226 0.44539 26.612-0.24678 8.9352-1.1125 12.534-3.6754 18.859-5.3566 6.5423-2.147-3.5864-1.7932-8.1396-1.7459-4.8853 4e-3 -9.7285-7e-3 -14.636 4e-3z" fill="#333"/>
   <path d="m631.02 431.44c-5.0587-0.0543-12.303 1.7279-15.225 3.0999-4.6241 1.4972-14.007 4.1084-7.472 4.2452 9.078-0.18004 16.226 0.44457 26.609-0.24618 8.9395-1.1124 12.539-3.6756 18.864-5.3572 6.5382-2.1465-3.5848-1.7935-8.1396-1.7459-4.8853 4e-3 -9.7285-7e-3 -14.636 4e-3z" fill="#333"/>
   <path d="m665.45 431.44c-5.0599-0.054-12.301 1.728-15.224 3.0999-4.6237 1.4972-14.008 4.1086-7.4719 4.2452 9.0798-0.18048 16.225 0.44548 26.612-0.24678 8.9362-1.1131 12.534-3.6752 18.859-5.3566 6.5398-2.1467-3.5858-1.7934-8.1398-1.7459-4.8853 4e-3 -9.7285-7e-3 -14.636 4e-3z" fill="#333"/>
   <path d="m697.53 430.08c-7.4287 0.33462-14.442 3.5221-21.289 6.0645-1.2745 4.8455-8.5468 4.0658-12.803 6.457-3.857 1.4253-0.47237 5.8601 2.6387 4.6836 15.432-0.55838 29.045 1.106 44.375-0.79492 12.126-4.1519 24.528-7.7562 36.467-12.324 2.9819-4.7363-3.0423-4.4352-5.6562-4.1055-14.577 0.0138-29.155-0.0269-43.732 0.0195z" fill="#333"/>
   <path d="m209.48 438.55c-7.3869 0.17557-13.36 2.9568-17.902 4.364-4.9325 1.2773-9.3115 3.2717-3.2035 3.0063 17.887-0.10202 34.75 0.19596 53.223-0.13416 8.7296-1.0392 12.406-3.5532 18.45-5.1757 6.0631-1.6199 2.9658-2.4839-2.6437-2.061-15.975 4.1e-4 -31.946-8.2e-4 -47.924 6e-4z" fill="#333"/>
   <path d="m271.54 438.55c-7.3882 0.17516-13.358 2.9567-17.902 4.364-4.9339 1.2777-9.3131 3.2717-3.2034 3.0063 9.0354-0.19085 16.296 0.34764 26.208-0.20002 8.8854-1.2403 12.421-3.7169 18.791-5.4249 6.2006-1.86-0.75144-1.9926-5.5928-1.7459-6.1008 4.1e-4 -12.197-8.5e-4 -18.301 6e-4z" fill="#333"/>
   <path d="m305.97 438.55c-7.387 0.1756-13.36 2.9568-17.902 4.364-4.9323 1.2772-9.3113 3.2717-3.2035 3.0063 9.0304-0.18953 16.296 0.34528 26.198-0.19879 8.891-1.2386 12.428-3.7179 18.801-5.4261 6.2047-1.8603-0.75456-1.9922-5.5928-1.7459-6.1008 4.1e-4 -12.197-8.5e-4 -18.301 6e-4z" fill="#333"/>
   <path d="m340.41 438.55c-7.3875 0.17516-13.361 2.9566-17.904 4.364-4.9344 1.2777-9.3101 3.2717-3.2015 3.0063 9.0297-0.18949 16.295 0.34522 26.196-0.19879 8.8911-1.238 12.431-3.7181 18.802-5.4261 6.2016-1.8603-0.75487-1.9922-5.5948-1.7459-6.1001 4.1e-4 -12.195-8.5e-4 -18.299 6e-4z" fill="#333"/>
   <path d="m374.84 438.55c-7.3882 0.17554-13.359 2.9566-17.902 4.364-4.9339 1.2776-9.3113 3.2714-3.2034 3.0063 9.0354-0.19085 16.296 0.34764 26.208-0.20002 8.8852-1.2401 12.421-3.7169 18.791-5.4249 6.2018-1.8602-0.75221-1.9925-5.5928-1.7459-6.1008 4.1e-4 -12.197-8.5e-4 -18.301 6e-4z" fill="#333"/>
   <path d="m409.27 438.55c-7.3875 0.17516-13.361 2.9566-17.904 4.364-4.9344 1.2777-9.31 3.2717-3.2015 3.0063 9.0298-0.18956 16.295 0.34531 26.196-0.19879 8.8902-1.2381 12.428-3.7181 18.8-5.4261 6.2066-1.8605-0.75504-1.9921-5.5928-1.7459-6.1002 4.1e-4 -12.195-8.5e-4 -18.299 6e-4z" fill="#333"/>
   <path d="m443.7 438.55c-7.3882 0.17516-13.358 2.9567-17.902 4.364-4.9338 1.2777-9.3131 3.2717-3.2034 3.0063 9.0354-0.19085 16.296 0.34764 26.208-0.20002 8.8853-1.2403 12.421-3.7169 18.791-5.4249 6.2006-1.86-0.75144-1.9926-5.5928-1.7459-6.1008 4.1e-4 -12.197-8.5e-4 -18.301 6e-4z" fill="#333"/>
   <path d="m478.13 438.55c-7.387 0.1757-13.36 2.9568-17.902 4.364-4.9322 1.2772-9.311 3.2717-3.2035 3.0063 9.0304-0.18953 16.296 0.34528 26.198-0.19879 8.8902-1.2381 12.428-3.7181 18.801-5.4261 6.2065-1.8605-0.75504-1.9921-5.5928-1.7459-6.1008 4.1e-4 -12.197-8.5e-4 -18.301 6e-4z" fill="#333"/>
   <path d="m512.57 438.55c-7.3876 0.17523-13.362 2.9566-17.904 4.364-4.9348 1.2778-9.3092 3.2716-3.2015 3.0063 9.0297-0.18949 16.295 0.34522 26.196-0.19879 8.8911-1.238 12.431-3.7181 18.802-5.4261 6.2016-1.8603-0.75487-1.9922-5.5948-1.7459-6.1001 4.1e-4 -12.195-8.5e-4 -18.299 6e-4z" fill="#333"/>
   <path d="m547 438.55c-7.3875 0.17567-13.359 2.9568-17.902 4.364-4.9326 1.2774-9.3112 3.2715-3.2034 3.0063 9.0351-0.19072 16.296 0.34749 26.208-0.20002 8.8852-1.2401 12.421-3.7169 18.791-5.4249 6.2024-1.8602-0.75308-1.9923-5.5928-1.7459-6.1008 4.1e-4 -12.197-8.5e-4 -18.301 6e-4z" fill="#333"/>
   <path d="m581.43 438.55c-7.3875 0.17516-13.361 2.9566-17.904 4.364-4.9344 1.2777-9.31 3.2717-3.2014 3.0063 9.0298-0.18956 16.295 0.34531 26.196-0.19879 8.8902-1.2381 12.428-3.7181 18.8-5.4261 6.2066-1.8605-0.75504-1.9921-5.5928-1.7459-6.1002 4.1e-4 -12.195-8.5e-4 -18.299 6e-4z" fill="#333"/>
   <path d="m615.86 438.55c-7.3882 0.17551-13.358 2.9566-17.902 4.364-4.9338 1.2776-9.3114 3.2715-3.2034 3.0063 9.0354-0.19085 16.296 0.34764 26.208-0.20002 8.8851-1.2401 12.421-3.7169 18.791-5.4249 6.2018-1.8602-0.75211-1.9925-5.5928-1.7459-6.1008 4.1e-4 -12.197-8.5e-4 -18.301 6e-4z" fill="#333"/>
   <path d="m650.3 438.55c-7.387 0.1757-13.36 2.9568-17.902 4.364-4.9322 1.2772-9.311 3.2717-3.2035 3.0063 9.0304-0.18953 16.296 0.34528 26.198-0.19879 8.8902-1.2381 12.428-3.7181 18.801-5.4261 6.2065-1.8605-0.75504-1.9921-5.5928-1.7459-6.1008 4.1e-4 -12.197-8.5e-4 -18.301 6e-4z" fill="#333"/>
   <path d="m189.63 445.66c-4.9449-0.13912-12.726 1.666-15.68 3.1042-4.6251 1.4975-14.006 4.108-7.4719 4.2451 23.503-0.0208 46.533 0.14649 70.605-0.0775 9.0948-0.65565 13.772-3.561 19.788-5.2113 7.6992-2.1828-0.95612-2.277-6.1906-2.061-20.351 4.1e-4 -40.697-8.2e-4 -61.051 6e-4z" fill="#333"/>
   <path d="m269.93 445.66c-4.9448-0.13912-12.726 1.666-15.68 3.1042-4.6251 1.4975-14.006 4.108-7.4719 4.2451 9.0794-0.18029 16.225 0.44523 26.612-0.24678 8.9376-1.1134 12.535-3.6755 18.861-5.3572 6.5367-2.146-3.5879-1.793-8.1398-1.7459-4.7277 4.1e-4 -9.4506-8.5e-4 -14.182 6e-4z" fill="#333"/>
   <path d="m304.36 445.66c-4.9444-0.13921-12.726 1.6662-15.68 3.1042-4.6248 1.4974-14.006 4.108-7.4719 4.2451 9.0776-0.17982 16.226 0.44432 26.609-0.24615 8.9408-1.1127 12.54-3.676 18.866-5.3578 6.5352-2.1459-3.5871-1.7931-8.1396-1.7459-4.7284 4.1e-4 -9.4519-8.5e-4 -14.183 6e-4z" fill="#333"/>
   <path d="m338.8 445.66c-4.9454-0.13946-12.725 1.666-15.68 3.1042-4.6243 1.4975-14.009 4.1085-7.4719 4.2451 9.0796-0.18029 16.225 0.44523 26.612-0.24678 8.9376-1.1136 12.535-3.6755 18.86-5.3572 6.5359-2.146-3.5874-1.793-8.1396-1.7459-4.7278 4.1e-4 -9.4506-8.5e-4 -14.182 6e-4z" fill="#333"/>
   <path d="m373.23 445.66c-4.9447-0.13915-12.726 1.6662-15.68 3.1042-4.6247 1.4974-14.005 4.108-7.4718 4.2451 9.0795-0.18039 16.225 0.44536 26.612-0.24678 8.9369-1.1129 12.535-3.6757 18.86-5.3572 6.5398-2.1464-3.5888-1.7928-8.1396-1.7459-4.7278 4.1e-4 -9.4506-8.5e-4 -14.182 6e-4z" fill="#333"/>
   <path d="m407.66 445.66c-4.9456-0.13949-12.724 1.666-15.68 3.1042-4.6242 1.4974-14.008 4.1085-7.4718 4.2451 9.0794-0.18029 16.225 0.44523 26.612-0.24678 8.9376-1.1136 12.535-3.6755 18.86-5.3572 6.5359-2.146-3.5874-1.793-8.1396-1.7459-4.7278 4.1e-4 -9.4506-8.5e-4 -14.182 6e-4z" fill="#333"/>
   <path d="m442.09 445.66c-4.9448-0.13912-12.726 1.666-15.68 3.1042-4.6251 1.4975-14.006 4.108-7.4719 4.2451 9.0794-0.18029 16.225 0.44523 26.612-0.24678 8.9368-1.1129 12.535-3.6757 18.86-5.3572 6.5395-2.1463-3.5895-1.7927-8.1398-1.7459-4.7277 4.1e-4 -9.4506-8.5e-4 -14.182 6e-4z" fill="#333"/>
   <path d="m476.52 445.66c-4.9444-0.13921-12.726 1.6662-15.68 3.1042-4.6248 1.4974-14.006 4.108-7.4718 4.2451 9.0775-0.17982 16.226 0.44432 26.609-0.24615 8.9408-1.1127 12.54-3.676 18.866-5.3578 6.5351-2.1459-3.5872-1.7931-8.1398-1.7459-4.7284 4.1e-4 -9.4519-8.5e-4 -14.183 6e-4z" fill="#333"/>
   <path d="m510.96 445.66c-4.9464-0.13912-12.724 1.6658-15.68 3.1042-4.6245 1.4976-14.008 4.1082-7.4719 4.2451 9.0796-0.18029 16.225 0.44523 26.612-0.24678 8.9375-1.1134 12.535-3.6755 18.86-5.3572 6.5367-2.146-3.5879-1.793-8.1396-1.7459-4.7278 4.1e-4 -9.4506-8.5e-4 -14.182 6e-4z" fill="#333"/>
   <path d="m545.39 445.66c-4.9447-0.13915-12.726 1.6662-15.68 3.1042-4.6247 1.4974-14.005 4.108-7.4718 4.2451 9.0794-0.18039 16.226 0.44536 26.612-0.24678 8.9369-1.1129 12.535-3.6757 18.86-5.3572 6.5401-2.1464-3.5887-1.7928-8.1396-1.7459-4.7277 4.1e-4 -9.4506-8.5e-4 -14.182 6e-4z" fill="#333"/>
   <path d="m579.82 445.66c-4.9454-0.13953-12.725 1.666-15.68 3.1042-4.6241 1.4974-14.009 4.1086-7.4718 4.2451 9.0794-0.18029 16.225 0.44523 26.612-0.24678 8.9376-1.1136 12.535-3.6755 18.86-5.3572 6.5359-2.146-3.5874-1.793-8.1396-1.7459-4.7278 4.1e-4 -9.4506-8.5e-4 -14.182 6e-4z" fill="#333"/>
   <path d="m614.25 445.66c-4.9449-0.13912-12.726 1.666-15.68 3.1042-4.6251 1.4975-14.006 4.108-7.4719 4.2451 9.0796-0.18029 16.225 0.44523 26.612-0.24678 8.9368-1.1129 12.535-3.6757 18.86-5.3572 6.5395-2.1463-3.5895-1.7927-8.1398-1.7459-4.7277 4.1e-4 -9.4505-8.5e-4 -14.181 6e-4z" fill="#333"/>
   <path d="m648.69 445.66c-4.9445-0.13899-12.726 1.6662-15.68 3.1042-4.6258 1.4976-14.004 4.1077-7.4718 4.2451 19.699-0.0237 38.898 0.15052 59.169-0.0775 9.0945-0.6553 13.772-3.5612 19.788-5.2113 7.7007-2.183-0.9566-2.2769-6.1906-2.061-16.539 4.1e-4 -33.073-8.2e-4 -49.615 6e-4z" fill="#333"/>
   <path d="m166.62 452.78c-7.3963 0.18251-13.341 2.9565-17.888 4.364-4.9293 1.2768-9.3168 3.2729-3.2035 3.0063 9.0292-0.18905 16.298 0.34437 26.196-0.19816 8.8911-1.2389 12.43-3.7184 18.802-5.4268 6.2023-1.8596-0.75588-1.9923-5.5928-1.7459-6.1053 4e-4 -12.206-8.6e-4 -18.314 5.9e-4z" fill="#333"/>
   <path d="m201.05 452.78c-7.3974 0.1821-13.34 2.9565-17.888 4.364-4.9312 1.2773-9.3183 3.2729-3.2035 3.0063 12.505-0.10984 23.921 0.20582 37.01-0.13171 8.7375-1.0343 12.431-3.5554 18.475-5.1781 6.0569-1.6189 2.965-2.4841-2.6437-2.061-10.584 4e-4 -21.163-8.2e-4 -31.75 5.9e-4z" fill="#333"/>
   <path d="m246.92 452.78c-7.3975 0.1826-13.34 2.9563-17.888 4.364-4.9306 1.2771-9.3163 3.2726-3.2035 3.0063 9.0339-0.19025 16.298 0.34657 26.206-0.19939 8.886-1.2404 12.422-3.7173 18.793-5.4255 6.2013-1.8595-0.75549-1.9924-5.5928-1.7459-6.1054 4e-4 -12.206-8.6e-4 -18.314 5.9e-4z" fill="#333"/>
   <path d="m281.35 452.78c-7.3968 0.18213-13.343 2.9563-17.89 4.364-4.9315 1.2773-9.3153 3.2729-3.2015 3.0063 9.0284-0.18902 16.297 0.34437 26.195-0.19816 8.8914-1.2384 12.433-3.7185 18.804-5.4268 6.199-1.8596-0.75599-1.9923-5.5948-1.7459-6.1047 4e-4 -12.204-8.6e-4 -18.312 5.9e-4z" fill="#333"/>
   <path d="m315.78 452.78c-7.3975 0.18247-13.34 2.9563-17.888 4.364-4.9309 1.2772-9.3167 3.2727-3.2035 3.0063 9.0342-0.19038 16.298 0.34673 26.206-0.19939 8.8854-1.2406 12.423-3.7173 18.793-5.4255 6.1994-1.8595-0.75353-1.9926-5.5928-1.7459-6.1053 4e-4 -12.206-8.6e-4 -18.314 5.9e-4z" fill="#333"/>
   <path d="m350.21 452.78c-7.3963 0.18266-13.341 2.9565-17.888 4.364-4.9292 1.2768-9.3162 3.2729-3.2034 3.0063 31.357-0.0544 62.135 0.10732 93.843-0.0782 8.9389-0.9001 12.996-3.6018 19.072-5.2316 6.0608-1.6192 2.9629-2.4837-2.6438-2.061-29.727 4e-4 -59.449-8.2e-4 -89.18 5.9e-4z" fill="#333"/>
   <path d="m453.51 452.78c-7.3967 0.18219-13.343 2.9563-17.89 4.364-4.9318 1.2773-9.3148 3.2728-3.2015 3.0063 9.0284-0.18902 16.297 0.34437 26.195-0.19816 8.8914-1.2384 12.433-3.7185 18.804-5.4268 6.1989-1.8596-0.75609-1.9923-5.5948-1.7459-6.1047 4e-4 -12.204-8.6e-4 -18.312 5.9e-4z" fill="#333"/>
   <path d="m487.94 452.78c-7.3976 0.18247-13.34 2.9563-17.888 4.364-4.9308 1.2772-9.3169 3.2727-3.2034 3.0063 9.0341-0.19038 16.298 0.34673 26.206-0.19939 8.8854-1.2406 12.423-3.7173 18.793-5.4255 6.1994-1.8595-0.75353-1.9926-5.5928-1.7459-6.1053 4e-4 -12.206-8.6e-4 -18.314 5.9e-4z" fill="#333"/>
   <path d="m522.38 452.78c-7.3963 0.18266-13.341 2.9565-17.888 4.364-4.9292 1.2768-9.3162 3.2729-3.2034 3.0063 9.0292-0.18908 16.298 0.34443 26.196-0.19816 8.8905-1.2385 12.43-3.7185 18.802-5.4268 6.2039-1.8598-0.75626-1.9922-5.5928-1.7459-6.1054 4e-4 -12.206-8.6e-4 -18.314 5.9e-4z" fill="#333"/>
   <path d="m556.81 452.78c-7.3975 0.1821-13.34 2.9565-17.888 4.364-4.9311 1.2773-9.3182 3.2729-3.2034 3.0063 9.0342-0.19038 16.298 0.34673 26.206-0.19939 8.8856-1.2407 12.423-3.7173 18.793-5.4255 6.1979-1.8593-0.75265-1.9928-5.5928-1.7459-6.1054 4e-4 -12.206-8.6e-4 -18.314 5.9e-4z" fill="#333"/>
   <path d="m269.39 419.18c-4.9447-0.13915-12.726 1.6662-15.68 3.1042-7.4356 1.9441-2.2207 2.632 3.5029 2.2893 8.0777-0.32092 13.332 0.64579 23.255-0.47878 6.1553-1.0235 10.366-2.7967 13.282-4.0445 0.37696-1.7347-12.008-0.49189-17.178-0.87079-2.3945 4.4e-4 -4.7838-9.1e-4 -7.1814 6e-4z" fill="#333"/>
   <path d="m302.22 419.18c-4.9465-0.13874-12.721 1.6666-15.676 3.1042-7.4369 1.9441-2.2234 2.6321 3.501 2.2893 8.0821-0.32187 13.336 0.64787 23.268-0.48064 6.1489-1.0254 10.378-2.7987 13.272-4.0457 0.35456-1.7297-12.008-0.4895-17.179-0.86774-2.3958 4.4e-4 -4.7864-9.1e-4 -7.1854 6e-4z" fill="#333"/>
   <path d="m335.07 419.18c-4.9449-0.13911-12.726 1.666-15.68 3.1042-7.4362 1.9442-2.2205 2.6319 3.503 2.2893 8.0812-0.32177 13.335 0.64774 23.266-0.48064 6.1489-1.0245 10.357-2.795 13.27-4.0427 0.3748-1.7345-12.007-0.49208-17.178-0.87079-2.3945 4.4e-4 -4.7838-9.1e-4 -7.1815 6e-4z" fill="#333"/>
   <path d="m367.91 419.18c-4.9444-0.13921-12.726 1.6662-15.68 3.1042-7.4355 1.9441-2.221 2.632 3.5029 2.2893 8.082-0.32183 13.336 0.6478 23.268-0.48064 6.1478-1.0257 10.373-2.7985 13.272-4.0457 0.35466-1.7297-12.008-0.4895-17.179-0.86774-2.3952 4.4e-4 -4.785-9.1e-4 -7.1835 6e-4z" fill="#333"/>
   <path d="m411.99 419.18c-4.9454-0.13946-12.725 1.666-15.68 3.1042-7.4379 1.9444-2.2207 2.6319 3.5029 2.2893 8.0813-0.32177 13.335 0.64774 23.266-0.48064 6.149-1.0254 10.378-2.7987 13.272-4.0457 0.35535-1.7298-12.009-0.48944-17.179-0.86774-2.3946 4.4e-4 -4.7838-9.1e-4 -7.1815 6e-4z" fill="#333"/>
   <path d="m444.83 419.18c-4.9447-0.13915-12.726 1.6662-15.68 3.1042-7.4355 1.9441-2.2207 2.632 3.503 2.2893 8.0777-0.32092 13.332 0.64579 23.255-0.47878 6.1553-1.0235 10.366-2.7967 13.282-4.0445 0.37686-1.7347-12.008-0.49189-17.178-0.87079-2.3945 4.4e-4 -4.7838-9.1e-4 -7.1815 6e-4z" fill="#333"/>
   <path d="m477.67 419.18c-4.9454-0.13952-12.725 1.666-15.68 3.1042-7.4378 1.9444-2.2212 2.632 3.503 2.2893 8.0812-0.32177 13.335 0.64774 23.266-0.48064 6.149-1.0254 10.378-2.7987 13.272-4.0457 0.35525-1.7298-12.009-0.48944-17.179-0.86774-2.3945 4.4e-4 -4.7838-9.1e-4 -7.1815 6e-4z" fill="#333"/>
   <path d="m510.51 419.18c-4.9449-0.13911-12.726 1.666-15.68 3.1042-7.4362 1.9442-2.2206 2.6319 3.5029 2.2893 8.0775-0.32083 13.332 0.64569 23.255-0.47878 6.1553-1.0235 10.366-2.7967 13.282-4.0445 0.3759-1.7345-12.007-0.49205-17.178-0.87079-2.3945 4.4e-4 -4.7838-9.1e-4 -7.1814 6e-4z" fill="#333"/>
   <path d="m554.59 419.18c-4.9445-0.13899-12.726 1.6662-15.68 3.1042-7.4352 1.944-2.221 2.6321 3.5029 2.2893 8.082-0.32183 13.336 0.6478 23.268-0.48064 6.1478-1.0257 10.373-2.7985 13.272-4.0457 0.35466-1.7297-12.008-0.4895-17.179-0.86774-2.3952 4.4e-4 -4.7852-9.1e-4 -7.1835 6e-4z" fill="#333"/>
   <path d="m587.43 419.18c-4.9464-0.13911-12.724 1.6658-15.68 3.1042-7.4379 1.9444-2.2201 2.6318 3.503 2.2893 8.0812-0.32177 13.335 0.64774 23.266-0.48064 6.1489-1.0245 10.357-2.795 13.27-4.0427 0.3748-1.7345-12.007-0.49208-17.178-0.87079-2.3945 4.4e-4 -4.7838-9.1e-4 -7.1815 6e-4z" fill="#333"/>
   <path d="m620.27 419.18c-4.9447-0.13915-12.726 1.6662-15.68 3.1042-7.4356 1.9441-2.2207 2.632 3.5029 2.2893 8.0777-0.32098 13.332 0.64588 23.255-0.47878 6.1553-1.0235 10.366-2.7967 13.282-4.0445 0.37735-1.7348-12.008-0.49186-17.178-0.87079-2.3946 4.4e-4 -4.7838-9.1e-4 -7.1815 6e-4z" fill="#333"/>
   <path d="m653.11 419.18c-4.9454-0.13952-12.725 1.666-15.68 3.1042-7.4379 1.9444-2.2212 2.632 3.5029 2.2893 8.0813-0.32177 13.335 0.64774 23.266-0.48064 6.149-1.0254 10.378-2.7987 13.272-4.0457 0.35535-1.7298-12.009-0.48944-17.179-0.86774-2.3946 4.4e-4 -4.7838-9.1e-4 -7.1815 6e-4z" fill="#333"/>
   <path d="m697.19 419.18c-4.9448-0.13911-12.726 1.666-15.68 3.1042-7.4362 1.9442-2.2206 2.6319 3.5029 2.2893 8.0774-0.32083 13.332 0.64569 23.255-0.47878 6.1553-1.0235 10.366-2.7967 13.282-4.0445 0.3759-1.7345-12.007-0.49205-17.178-0.87079-2.3945 4.4e-4 -4.7838-9.1e-4 -7.1815 6e-4z" fill="#333"/>
   <path d="m730.03 419.18c-4.9445-0.13899-12.726 1.6662-15.68 3.1042-7.4352 1.944-2.221 2.6321 3.5029 2.2893 8.0822-0.32187 13.336 0.64787 23.268-0.48064 6.1489-1.0254 10.378-2.7987 13.272-4.0457 0.35456-1.7297-12.008-0.4895-17.179-0.86774-2.3951 4.4e-4 -4.785-9.1e-4 -7.1834 6e-4z" fill="#333"/>
   <path d="m762.88 419.18c-4.9464-0.13911-12.724 1.6658-15.68 3.1042-7.438 1.9444-2.2201 2.6318 3.5029 2.2893 8.0813-0.32177 13.335 0.64774 23.266-0.48064 6.1489-1.0245 10.357-2.795 13.27-4.0427 0.3748-1.7345-12.007-0.49208-17.178-0.87079-2.3945 4.4e-4 -4.7838-9.1e-4 -7.1815 6e-4z" fill="#333"/>
   <path d="m600.8 414.05c-7.4087 0.21824-14.144 3.032-17.853 4.4864-2.0532 1.7715 9.6488 0.54275 13.701 0.90713 6.3656-0.37711 11.084 0.92984 19.952-1.0444 4.619-1.4175 14.813-4.1996 8.498-4.3498-8.1001 4.1e-4 -16.195-8.2e-4 -24.299 6.3e-4z" fill="#333"/>
   <path d="m633.64 414.05c-7.4118 0.21934-14.154 3.0343-17.858 4.4894-2.0272 1.7668 9.6522 0.54007 13.707 0.90407 6.3662-0.37682 11.085 0.92946 19.954-1.0444 4.615-1.4181 14.811-4.1986 8.498-4.3498-8.1008 4.1e-4 -16.197-8.2e-4 -24.301 6.3e-4z" fill="#333"/>
   <path d="m666.48 414.05c-7.407 0.21805-14.15 3.0322-17.853 4.4864-2.0535 1.7715 9.6491 0.54272 13.701 0.90713 6.3652-0.37698 11.085 0.92955 19.952-1.0444 4.6191-1.4177 14.813-4.1993 8.498-4.3498-8.1002 4.1e-4 -16.196-8.2e-4 -24.299 6.3e-4z" fill="#333"/>
   <path d="m711.68 414.05c-5.0624-0.0533-12.299 1.7273-15.223 3.0998-7.4402 1.9448-2.2202 2.6316 3.501 2.29 8.0804-0.32168 13.337 0.64771 23.268-0.48127 6.1475-1.0249 10.376-2.7984 13.27-4.0451 0.35921-1.7307-12.01-0.48893-17.179-0.86773-2.555 5e-3 -5.0577-8e-3 -7.636 4e-3z" fill="#333"/>
   <path d="m744.52 414.05c-5.0607-0.0532-12.301 1.7277-15.223 3.0998-7.4372 1.9444-2.2209 2.6319 3.501 2.29 8.077-0.32092 13.334 0.64594 23.256-0.47941 6.1536-1.0229 10.365-2.7964 13.28-4.0439 0.38168-1.7358-12.009-0.49132-17.178-0.87082-2.555 5e-3 -5.0577-8e-3 -7.6361 4e-3z" fill="#333"/>
   <path d="m777.36 414.05c-5.0613-0.0537-12.299 1.7276-15.223 3.0998-7.44 1.9448-2.2212 2.6318 3.501 2.29 8.0804-0.32168 13.337 0.64771 23.268-0.48127 6.1476-1.0249 10.376-2.7984 13.27-4.0451 0.35931-1.7307-12.01-0.48893-17.179-0.86773-2.555 5e-3 -5.0577-8e-3 -7.6361 4e-3z" fill="#333"/>
   <path d="m289.23 412.07c-7.3972 0.18263-13.342 2.957-17.89 4.3645-4.9326 1.2774-9.3111 3.2716-3.2036 3.0063 9.0302-0.18941 16.296 0.34512 26.198-0.1988 8.8909-1.2385 12.428-3.718 18.801-5.4261 6.2032-1.8599-0.75133-1.9932-5.591-1.7466-6.1054 4.4e-4 -12.206-8.2e-4 -18.314 6.3e-4z" fill="#333"/>
   <path d="m577.59 457.92c-5.0544-0.0651-12.415 1.703-15.356 3.0998-7.5104 1.9682-2.0383 2.6188 3.6475 2.29 8.3502-0.32291 13.842 0.64726 24.04-0.4751 6.1922-1.0129 10.48-2.8104 13.338-4.0562 0.22523-1.7151-12.086-0.48921-17.321-0.86282-2.7904 4e-3 -5.5358-7e-3 -8.3488 4e-3z" fill="#333"/>
   <path d="m611.52 457.92c-5.0536-0.0655-12.415 1.703-15.356 3.0998-7.51 1.968-2.041 2.619 3.6456 2.29 8.3466-0.322 13.839 0.64524 24.029-0.47324 6.1994-1.0121 10.486-2.811 13.352-4.0581 0.22344-1.715-12.087-0.48927-17.323-0.86282-2.7899 4e-3 -5.5346-7e-3 -8.3469 4e-3z" fill="#333"/>
   <path d="m645.44 457.92c-5.0538-0.0654-12.415 1.7029-15.356 3.0998-7.51 1.968-2.0409 2.619 3.6456 2.29 8.3467-0.32209 13.839 0.64534 24.029-0.47324 6.1993-1.0121 10.485-2.811 13.352-4.0581 0.22394-1.715-12.085-0.4893-17.321-0.86282-2.7904 4e-3 -5.5358-7e-3 -8.3488 4e-3z" fill="#333"/>
   <path d="m592.98 452.78c-4.9392-0.1496-12.846 1.6364-15.826 3.1036-7.5112 1.9682-2.0413 2.6196 3.6476 2.2899 8.3508-0.32323 13.839 0.64754 24.036-0.47447 6.1933-1.0135 10.489-2.812 13.342-4.0581 0.21103-1.712-12.084-0.48893-17.321-0.86159-2.6268 4.1e-4 -5.2487-8.5e-4 -7.8787 6e-4z" fill="#333"/>
   <path d="m626.9 452.78c-4.9391-0.14932-12.847 1.6365-15.826 3.1036-7.5094 1.9679-2.0417 2.6198 3.6476 2.2899 8.2608-0.30489 13.774 0.60687 23.769-0.43694 6.3502-0.98741 10.709-2.8377 13.609-4.0956 0.21162-1.712-12.084-0.48886-17.321-0.86159-2.6269 4.1e-4 -5.2488-8.5e-4 -7.8788 6e-4z" fill="#333"/>
   <path d="m660.83 452.78c-4.9394-0.14938-12.845 1.6368-15.825 3.1036-7.5097 1.9678-2.0444 2.6199 3.6457 2.2899 8.3511-0.32301 13.841 0.64723 24.038-0.47447 6.1933-1.0135 10.489-2.812 13.342-4.0581 0.21004-1.7119-12.085-0.48896-17.323-0.86159-2.6268 4.1e-4 -5.2488-8.5e-4 -7.8787 6e-4z" fill="#333"/>
   <path d="m566.42 414.2c-5.0084-0.20015-18.064 1.947-17.528 3.4623 0.0919 1.634 15.372 0.96497 22.299-1.7644 2.5225-1.2652-0.78391-1.75-4.7706-1.6979z" fill="#333"/>
   <path d="m333.93 414.2c-5.0097-0.20002-18.061 1.9469-17.528 3.4623 0.0932 1.6338 15.371 0.96551 22.301-1.7644 2.5204-1.2655-0.78274-1.7502-4.7725-1.6979z" fill="#333"/>
   <path d="m357.38 414.2c-5.0095-0.1999-18.063 1.9465-17.53 3.4623 0.095 1.6335 15.37 0.96566 22.301-1.7644 2.52-1.2653-0.78162-1.7501-4.7706-1.6979z" fill="#333"/>
   <path d="m380.82 414.2c-5.0085-0.19993-18.063 1.9468-17.53 3.4623 0.0945 1.6336 15.372 0.96538 22.301-1.7644 2.52-1.2653-0.78162-1.7501-4.7706-1.6979z" fill="#333"/>
   <path d="m396.24 414.86c-6.0889 0.27599-14.788 3.6611-6.8759 3.0149 10.444-0.10719 19.866 0.20424 30.882-0.13662 5.9806-0.84323 12.157-3.4168 5.0967-2.8814-9.7041 2e-3 -19.384-4e-3 -29.103 3e-3z" fill="#333"/>
   <path d="m252.08 424.95h21.112c2.4367 0 3.1912 0.40077 1.6917 0.89861l-12.992 4.3134c-1.4995 0.49785-4.6682 0.89861-7.1049 0.89861h-21.112c-2.4367 0-3.1912-0.40076-1.6917-0.89861l12.992-4.3134c1.4995-0.49784 4.6682-0.89861 7.1049-0.89861z" fill="#ccc"/>
   <path d="m286.52 424.95h21.112c2.4367 0 3.1912 0.40077 1.6917 0.89861l-12.992 4.3134c-1.4995 0.49785-4.6682 0.89861-7.1049 0.89861h-21.112c-2.4367 0-3.1912-0.40076-1.6917-0.89861l12.992-4.3134c1.4995-0.49784 4.6682-0.89861 7.1049-0.89861z" fill="#ccc"/>
   <path d="m320.95 424.95h21.112c2.4367 0 3.1912 0.40077 1.6917 0.89861l-12.992 4.3134c-1.4995 0.49785-4.6682 0.89861-7.1049 0.89861h-21.112c-2.4367 0-3.1912-0.40076-1.6917-0.89861l12.992-4.3134c1.4995-0.49784 4.6682-0.89861 7.1049-0.89861z" fill="#ccc"/>
   <path d="m355.38 424.95h21.112c2.4367 0 3.1912 0.40077 1.6917 0.89861l-12.992 4.3134c-1.4995 0.49785-4.6682 0.89861-7.1049 0.89861h-21.112c-2.4367 0-3.1912-0.40076-1.6917-0.89861l12.992-4.3134c1.4995-0.49784 4.6682-0.89861 7.1049-0.89861z" fill="#ccc"/>
   <path d="m389.81 424.95h21.112c2.4366 0 3.1912 0.40077 1.6917 0.89861l-12.992 4.3134c-1.4995 0.49785-4.6683 0.89861-7.1049 0.89861h-21.112c-2.4366 0-3.1912-0.40076-1.6917-0.89861l12.992-4.3134c1.4995-0.49784 4.6683-0.89861 7.1049-0.89861z" fill="#ccc"/>
   <path d="m424.25 424.95h21.112c2.4366 0 3.1912 0.40077 1.6917 0.89861l-12.992 4.3134c-1.4995 0.49785-4.6683 0.89861-7.1049 0.89861h-21.112c-2.4366 0-3.1912-0.40076-1.6917-0.89861l12.992-4.3134c1.4995-0.49784 4.6683-0.89861 7.1049-0.89861z" fill="#ccc"/>
   <path d="m458.68 424.95h21.112c2.4367 0 3.1913 0.40077 1.6918 0.89861l-12.992 4.3134c-1.4995 0.49785-4.6683 0.89861-7.105 0.89861h-21.112c-2.4367 0-3.1912-0.40076-1.6917-0.89861l12.992-4.3134c1.4995-0.49784 4.6682-0.89861 7.1049-0.89861z" fill="#ccc"/>
   <path d="m493.11 424.95h21.112c2.4367 0 3.1912 0.40077 1.6917 0.89861l-12.992 4.3134c-1.4995 0.49785-4.6682 0.89861-7.1049 0.89861h-21.112c-2.4367 0-3.1912-0.40076-1.6917-0.89861l12.992-4.3134c1.4995-0.49784 4.6682-0.89861 7.1049-0.89861z" fill="#ccc"/>
   <path d="m527.54 424.95h21.112c2.4367 0 3.1912 0.40077 1.6917 0.89861l-12.992 4.3134c-1.4995 0.49785-4.6682 0.89861-7.1049 0.89861h-21.112c-2.4367 0-3.1912-0.40076-1.6917-0.89861l12.992-4.3134c1.4995-0.49784 4.6682-0.89861 7.1049-0.89861z" fill="#ccc"/>
   <path d="m561.98 424.95h21.112c2.4367 0 3.1912 0.40077 1.6917 0.89861l-12.992 4.3134c-1.4995 0.49785-4.6682 0.89861-7.1049 0.89861h-21.112c-2.4367 0-3.1912-0.40076-1.6917-0.89861l12.992-4.3134c1.4995-0.49784 4.6682-0.89861 7.1049-0.89861z" fill="#ccc"/>
   <path d="m596.41 424.95h21.112c2.4367 0 3.1912 0.40077 1.6917 0.89861l-12.992 4.3134c-1.4995 0.49785-4.6682 0.89861-7.1049 0.89861h-21.112c-2.4367 0-3.1912-0.40076-1.6917-0.89861l12.992-4.3134c1.4995-0.49784 4.6682-0.89861 7.1049-0.89861z" fill="#ccc"/>
   <path d="m630.84 424.95h21.112c2.4367 0 3.1912 0.40077 1.6917 0.89861l-12.992 4.3134c-1.4995 0.49785-4.6682 0.89861-7.1049 0.89861h-21.112c-2.4367 0-3.1912-0.40076-1.6917-0.89861l12.992-4.3134c1.4995-0.49784 4.6682-0.89861 7.1049-0.89861z" fill="#ccc"/>
   <path d="m665.27 424.95h21.112c2.4366 0 3.1912 0.40077 1.6917 0.89861l-12.992 4.3134c-1.4995 0.49785-4.6683 0.89861-7.1049 0.89861h-21.112c-2.4366 0-3.1912-0.40076-1.6917-0.89861l12.992-4.3134c1.4995-0.49784 4.6683-0.89861 7.1049-0.89861z" fill="#ccc"/>
   <path d="m699.71 424.95h21.112c2.4366 0 3.1912 0.40077 1.6917 0.89861l-12.992 4.3134c-1.4995 0.49785-4.6683 0.89861-7.1049 0.89861h-21.112c-2.4366 0-3.1912-0.40076-1.6917-0.89861l12.992-4.3134c1.4995-0.49784 4.6683-0.89861 7.1049-0.89861z" fill="#ccc"/>
   <path d="m734.14 424.95h32.548c2.4366 0 3.1912 0.40077 1.6917 0.89861l-12.992 4.3134c-1.4995 0.49785-4.6683 0.89861-7.1049 0.89861h-32.548c-2.4367 0-3.1912-0.40076-1.6917-0.89861l12.992-4.3134c1.4995-0.49784 4.6682-0.89861 7.1049-0.89861z" fill="#ccc"/>
   <path d="m230.66 432.07h41.344c2.4366 0 3.1911 0.4008 1.6916 0.89865l-12.992 4.3134c-1.4995 0.49785-4.6683 0.89862-7.1049 0.89862h-41.344c-2.4366 0-3.1912-0.40077-1.6917-0.89862l12.992-4.3134c1.4995-0.49785 4.6684-0.89865 7.105-0.89865z" fill="#ccc"/>
   <path d="m285.32 432.07h21.112c2.4367 0 3.1911 0.4008 1.6916 0.89865l-12.992 4.3134c-1.4994 0.49782-4.6682 0.89862-7.1049 0.89862h-21.112c-2.4367 0-3.1911-0.4008-1.6917-0.89862l12.992-4.3134c1.4995-0.49785 4.6683-0.89865 7.105-0.89865z" fill="#ccc"/>
   <path d="m319.75 432.07h21.112c2.4367 0 3.1911 0.4008 1.6916 0.89865l-12.992 4.3134c-1.4994 0.49782-4.6682 0.89862-7.1049 0.89862h-21.112c-2.4367 0-3.1911-0.4008-1.6917-0.89862l12.992-4.3134c1.4995-0.49785 4.6683-0.89865 7.105-0.89865z" fill="#ccc"/>
   <path d="m354.19 432.07h21.112c2.4367 0 3.1911 0.4008 1.6916 0.89865l-12.992 4.3134c-1.4994 0.49782-4.6682 0.89862-7.1049 0.89862h-21.112c-2.4367 0-3.1911-0.4008-1.6917-0.89862l12.992-4.3134c1.4995-0.49785 4.6683-0.89865 7.105-0.89865z" fill="#ccc"/>
   <path d="m388.62 432.07h21.112c2.4366 0 3.1911 0.4008 1.6916 0.89865l-12.992 4.3134c-1.4994 0.49782-4.6683 0.89862-7.1049 0.89862h-21.112c-2.4366 0-3.1911-0.4008-1.6917-0.89862l12.992-4.3134c1.4995-0.49785 4.6684-0.89865 7.105-0.89865z" fill="#ccc"/>
   <path d="m423.05 432.07h21.112c2.4366 0 3.1911 0.4008 1.6916 0.89865l-12.992 4.3134c-1.4994 0.49782-4.6683 0.89862-7.1049 0.89862h-21.112c-2.4366 0-3.1911-0.4008-1.6917-0.89862l12.992-4.3134c1.4995-0.49785 4.6684-0.89865 7.105-0.89865z" fill="#ccc"/>
   <path d="m457.48 432.07h21.112c2.4367 0 3.1912 0.4008 1.6917 0.89865l-12.992 4.3134c-1.4994 0.49782-4.6683 0.89862-7.105 0.89862h-21.112c-2.4367 0-3.1911-0.4008-1.6917-0.89862l12.992-4.3134c1.4995-0.49785 4.6683-0.89865 7.105-0.89865z" fill="#ccc"/>
   <path d="m491.92 432.07h21.112c2.4367 0 3.1911 0.4008 1.6916 0.89865l-12.992 4.3134c-1.4994 0.49782-4.6682 0.89862-7.1049 0.89862h-21.112c-2.4367 0-3.1911-0.4008-1.6917-0.89862l12.992-4.3134c1.4995-0.49785 4.6683-0.89865 7.105-0.89865z" fill="#ccc"/>
   <path d="m526.35 432.07h21.112c2.4367 0 3.1911 0.4008 1.6916 0.89865l-12.992 4.3134c-1.4994 0.49782-4.6682 0.89862-7.1049 0.89862h-21.112c-2.4367 0-3.1911-0.4008-1.6917-0.89862l12.992-4.3134c1.4995-0.49785 4.6683-0.89865 7.105-0.89865z" fill="#ccc"/>
   <path d="m560.78 432.07h21.112c2.4367 0 3.1911 0.4008 1.6916 0.89865l-12.992 4.3134c-1.4994 0.49782-4.6682 0.89862-7.1049 0.89862h-21.112c-2.4367 0-3.1911-0.4008-1.6917-0.89862l12.992-4.3134c1.4995-0.49785 4.6683-0.89865 7.105-0.89865z" fill="#ccc"/>
   <path d="m595.21 432.07h21.112c2.4367 0 3.1911 0.4008 1.6916 0.89865l-12.992 4.3134c-1.4994 0.49782-4.6682 0.89862-7.1049 0.89862h-21.112c-2.4367 0-3.1911-0.4008-1.6917-0.89862l12.992-4.3134c1.4995-0.49785 4.6683-0.89865 7.105-0.89865z" fill="#ccc"/>
   <path d="m629.65 432.07h21.112c2.4366 0 3.1911 0.4008 1.6916 0.89865l-12.992 4.3134c-1.4994 0.49782-4.6683 0.89862-7.1049 0.89862h-21.112c-2.4366 0-3.1911-0.4008-1.6917-0.89862l12.992-4.3134c1.4995-0.49785 4.6684-0.89865 7.105-0.89865z" fill="#ccc"/>
   <path d="m664.08 432.07h21.112c2.4366 0 3.1911 0.4008 1.6916 0.89865l-12.992 4.3134c-1.4994 0.49782-4.6683 0.89862-7.1049 0.89862h-21.112c-2.4366 0-3.1911-0.4008-1.6917-0.89862l12.992-4.3134c1.4995-0.49785 4.6684-0.89865 7.105-0.89865z" fill="#ccc"/>
   <path d="m698.51 432.07c-2.4367 0-5.6057 0.40107-7.1052 0.89891l-12.992 4.3133c-1.4994 0.49785-1.5391 0.89851 1.6914 0.89851 1.3389 0 2.2411 0.23557 1.4094 0.52558l-17.132 5.6879c-1.4995 0.49784-0.74648 0.8989 1.6902 0.8989h39.357c2.4367 0 5.6057-0.40106 7.1052-0.8989l21.421-7.112 12.992-4.3133c1.4995-0.49784 0.74643-0.89891-1.6902-0.89891h-32.548z" fill="#ccc"/>
   <path d="m207.68 439.18h51.828c1.58 0 1.6448 0.40077 0.14528 0.89861l-12.992 4.3134c-1.4995 0.49785-3.9785 0.89861-5.5585 0.89861h-51.828c-1.5799 0-1.6448-0.40076-0.14527-0.89861l12.992-4.3134c1.4995-0.49784 3.9786-0.89861 5.5585-0.89861z" fill="#ccc"/>
   <path d="m269.74 439.18h24.205c1.58 0 1.6449 0.40077 0.14538 0.89861l-12.992 4.3134c-1.4995 0.49785-3.9786 0.89861-5.5586 0.89861h-24.205c-1.5799 0-1.6448-0.40076-0.14527-0.89861l12.992-4.3134c1.4995-0.49784 3.9786-0.89861 5.5585-0.89861z" fill="#ccc"/>
   <path d="m304.17 439.18h24.205c1.58 0 1.6448 0.40077 0.14528 0.89861l-12.992 4.3134c-1.4995 0.49785-3.9785 0.89861-5.5585 0.89861h-24.205c-1.58 0-1.6448-0.40076-0.14527-0.89861l12.992-4.3134c1.4995-0.49784 3.9785-0.89861 5.5585-0.89861z" fill="#ccc"/>
   <path d="m338.6 439.18h24.205c1.5799 0 1.6448 0.40077 0.14528 0.89861l-12.992 4.3134c-1.4995 0.49785-3.9786 0.89861-5.5585 0.89861h-24.205c-1.58 0-1.6449-0.40076-0.14537-0.89861l12.992-4.3134c1.4995-0.49784 3.9786-0.89861 5.5586-0.89861z" fill="#ccc"/>
   <path d="m373.04 439.18h24.204c1.58 0 1.6449 0.40077 0.14538 0.89861l-12.992 4.3134c-1.4995 0.49785-3.9786 0.89861-5.5586 0.89861h-24.204c-1.58 0-1.6449-0.40076-0.14537-0.89861l12.992-4.3134c1.4995-0.49784 3.9786-0.89861 5.5586-0.89861z" fill="#ccc"/>
   <path d="m407.47 439.18h24.205c1.5799 0 1.6448 0.40077 0.14528 0.89861l-12.992 4.3134c-1.4995 0.49785-3.9786 0.89861-5.5585 0.89861h-24.205c-1.58 0-1.6449-0.40076-0.14537-0.89861l12.992-4.3134c1.4995-0.49784 3.9786-0.89861 5.5586-0.89861z" fill="#ccc"/>
   <path d="m441.9 439.18h24.204c1.58 0 1.6449 0.40077 0.14538 0.89861l-12.992 4.3134c-1.4995 0.49785-3.9786 0.89861-5.5586 0.89861h-24.204c-1.58 0-1.6449-0.40076-0.14537-0.89861l12.992-4.3134c1.4995-0.49784 3.9786-0.89861 5.5586-0.89861z" fill="#ccc"/>
   <path d="m476.33 439.18h24.204c1.58 0 1.6449 0.40077 0.14538 0.89861l-12.992 4.3134c-1.4995 0.49785-3.9786 0.89861-5.5586 0.89861h-24.204c-1.58 0-1.6449-0.40076-0.14537-0.89861l12.992-4.3134c1.4995-0.49784 3.9786-0.89861 5.5586-0.89861z" fill="#ccc"/>
   <path d="m510.77 439.18h24.205c1.5799 0 1.6448 0.40077 0.14528 0.89861l-12.992 4.3134c-1.4995 0.49785-3.9786 0.89861-5.5585 0.89861h-24.205c-1.58 0-1.6448-0.40076-0.14527-0.89861l12.992-4.3134c1.4995-0.49784 3.9785-0.89861 5.5585-0.89861z" fill="#ccc"/>
   <path d="m545.2 439.18h24.205c1.58 0 1.6448 0.40077 0.14528 0.89861l-12.992 4.3134c-1.4995 0.49785-3.9785 0.89861-5.5585 0.89861h-24.205c-1.58 0-1.6448-0.40076-0.14527-0.89861l12.992-4.3134c1.4995-0.49784 3.9785-0.89861 5.5585-0.89861z" fill="#ccc"/>
   <path d="m579.63 439.18h24.205c1.5799 0 1.6448 0.40077 0.14528 0.89861l-12.992 4.3134c-1.4995 0.49785-3.9786 0.89861-5.5585 0.89861h-24.205c-1.58 0-1.6449-0.40076-0.14537-0.89861l12.992-4.3134c1.4995-0.49784 3.9786-0.89861 5.5586-0.89861z" fill="#ccc"/>
   <path d="m614.06 439.18h24.205c1.58 0 1.6448 0.40077 0.14528 0.89861l-12.992 4.3134c-1.4995 0.49785-3.9785 0.89861-5.5585 0.89861h-24.205c-1.58 0-1.6448-0.40076-0.14527-0.89861l12.992-4.3134c1.4995-0.49784 3.9785-0.89861 5.5585-0.89861z" fill="#ccc"/>
   <path d="m648.5 439.18h24.205c1.5799 0 1.6448 0.40077 0.14528 0.89861l-12.992 4.3134c-1.4995 0.49785-3.9786 0.89861-5.5585 0.89861h-24.205c-1.58 0-1.6449-0.40076-0.14537-0.89861l12.992-4.3134c1.4995-0.49784 3.9786-0.89861 5.5586-0.89861z" fill="#ccc"/>
   <path d="m187.8 446.29h66.98c2.4366 0 3.1911 0.40079 1.6917 0.89861l-12.992 4.3134c-1.4995 0.49785-4.6684 0.89865-7.105 0.89865h-66.98c-2.4367 0-3.1911-0.4008-1.6916-0.89865l12.992-4.3134c1.4994-0.49782 4.6682-0.89861 7.1049-0.89861z" fill="#ccc"/>
   <path d="m268.1 446.29h21.112c2.4366 0 3.1911 0.40079 1.6917 0.89861l-12.992 4.3134c-1.4995 0.49785-4.6684 0.89865-7.105 0.89865h-21.112c-2.4366 0-3.1911-0.4008-1.6916-0.89865l12.992-4.3134c1.4994-0.49782 4.6683-0.89861 7.1049-0.89861z" fill="#ccc"/>
   <path d="m302.53 446.29h21.112c2.4366 0 3.1911 0.40079 1.6917 0.89861l-12.992 4.3134c-1.4995 0.49785-4.6684 0.89865-7.105 0.89865h-21.112c-2.4366 0-3.1911-0.4008-1.6916-0.89865l12.992-4.3134c1.4994-0.49782 4.6683-0.89861 7.1049-0.89861z" fill="#ccc"/>
   <path d="m336.97 446.29h21.112c2.4367 0 3.1912 0.40079 1.6918 0.89861l-12.992 4.3134c-1.4995 0.49785-4.6684 0.89865-7.1051 0.89865h-21.112c-2.4367 0-3.1911-0.4008-1.6916-0.89865l12.992-4.3134c1.4994-0.49782 4.6682-0.89861 7.1049-0.89861z" fill="#ccc"/>
   <path d="m371.4 446.29h21.112c2.4367 0 3.1911 0.40079 1.6917 0.89861l-12.992 4.3134c-1.4995 0.49785-4.6683 0.89865-7.105 0.89865h-21.112c-2.4367 0-3.1911-0.4008-1.6916-0.89865l12.992-4.3134c1.4994-0.49782 4.6682-0.89861 7.1049-0.89861z" fill="#ccc"/>
   <path d="m405.83 446.29h21.112c2.4367 0 3.1911 0.40079 1.6917 0.89861l-12.992 4.3134c-1.4995 0.49785-4.6683 0.89865-7.105 0.89865h-21.112c-2.4367 0-3.1911-0.4008-1.6916-0.89865l12.992-4.3134c1.4994-0.49782 4.6682-0.89861 7.1049-0.89861z" fill="#ccc"/>
   <path d="m440.26 446.29h21.112c2.4367 0 3.1911 0.40079 1.6917 0.89861l-12.992 4.3134c-1.4995 0.49785-4.6683 0.89865-7.105 0.89865h-21.112c-2.4367 0-3.1911-0.4008-1.6916-0.89865l12.992-4.3134c1.4994-0.49782 4.6682-0.89861 7.1049-0.89861z" fill="#ccc"/>
   <path d="m474.7 446.29h21.112c2.4366 0 3.1911 0.40079 1.6917 0.89861l-12.992 4.3134c-1.4995 0.49785-4.6684 0.89865-7.105 0.89865h-21.112c-2.4366 0-3.1911-0.4008-1.6916-0.89865l12.992-4.3134c1.4994-0.49782 4.6683-0.89861 7.1049-0.89861z" fill="#ccc"/>
   <path d="m509.13 446.29h21.112c2.4366 0 3.1911 0.40079 1.6917 0.89861l-12.992 4.3134c-1.4995 0.49785-4.6684 0.89865-7.105 0.89865h-21.112c-2.4366 0-3.1911-0.4008-1.6916-0.89865l12.992-4.3134c1.4994-0.49782 4.6683-0.89861 7.1049-0.89861z" fill="#ccc"/>
   <path d="m543.56 446.29h21.112c2.4366 0 3.1911 0.40079 1.6917 0.89861l-12.992 4.3134c-1.4995 0.49785-4.6684 0.89865-7.105 0.89865h-21.112c-2.4367 0-3.1911-0.4008-1.6916-0.89865l12.992-4.3134c1.4994-0.49782 4.6682-0.89861 7.1049-0.89861z" fill="#ccc"/>
   <path d="m577.99 446.29h21.112c2.4367 0 3.1912 0.40079 1.6918 0.89861l-12.992 4.3134c-1.4995 0.49785-4.6684 0.89865-7.1051 0.89865h-21.112c-2.4367 0-3.1911-0.4008-1.6916-0.89865l12.992-4.3134c1.4994-0.49782 4.6682-0.89861 7.1049-0.89861z" fill="#ccc"/>
   <path d="m612.43 446.29h21.112c2.4367 0 3.1911 0.40079 1.6917 0.89861l-12.992 4.3134c-1.4995 0.49785-4.6683 0.89865-7.105 0.89865h-21.112c-2.4367 0-3.1911-0.4008-1.6916-0.89865l12.992-4.3134c1.4994-0.49782 4.6682-0.89861 7.1049-0.89861z" fill="#ccc"/>
   <path d="m646.86 446.29h55.544c2.4367 0 3.1911 0.40079 1.6917 0.89861l-12.992 4.3134c-1.4995 0.49785-4.6683 0.89865-7.105 0.89865h-55.544c-2.4367 0-3.1911-0.4008-1.6916-0.89865l12.992-4.3134c1.4994-0.49782 4.6682-0.89861 7.1049-0.89861z" fill="#ccc"/>
   <path d="m164.83 453.41h24.205c1.58 0 1.6448 0.40076 0.14527 0.89861l-12.992 4.3134c-1.4995 0.49784-3.9785 0.89861-5.5585 0.89861h-24.205c-1.5799 0-1.6448-0.40077-0.14528-0.89861l12.992-4.3134c1.4995-0.49785 3.9786-0.89861 5.5585-0.89861z" fill="#ccc"/>
   <path d="m199.26 453.41h35.64c1.58 0 1.6449 0.40076 0.14537 0.89861l-12.992 4.3134c-1.4995 0.49784-3.9786 0.89861-5.5586 0.89861h-35.64c-1.58 0-1.6449-0.40077-0.14538-0.89861l12.992-4.3134c1.4995-0.49785 3.9786-0.89861 5.5586-0.89861z" fill="#ccc"/>
   <path d="m245.13 453.41h24.204c1.58 0 1.6449 0.40076 0.14537 0.89861l-12.992 4.3134c-1.4995 0.49784-3.9786 0.89861-5.5586 0.89861h-24.204c-1.58 0-1.6449-0.40077-0.14538-0.89861l12.992-4.3134c1.4995-0.49785 3.9786-0.89861 5.5586-0.89861z" fill="#ccc"/>
   <path d="m279.56 453.41h24.205c1.5799 0 1.6448 0.40076 0.14527 0.89861l-12.992 4.3134c-1.4995 0.49784-3.9786 0.89861-5.5585 0.89861h-24.205c-1.58 0-1.6449-0.40077-0.14538-0.89861l12.992-4.3134c1.4995-0.49785 3.9786-0.89861 5.5586-0.89861z" fill="#ccc"/>
   <path d="m313.99 453.41h24.204c1.58 0 1.6449 0.40076 0.14537 0.89861l-12.992 4.3134c-1.4995 0.49784-3.9786 0.89861-5.5586 0.89861h-24.204c-1.58 0-1.6449-0.40077-0.14538-0.89861l12.992-4.3134c1.4995-0.49785 3.9786-0.89861 5.5586-0.89861z" fill="#ccc"/>
   <path d="m348.43 453.41h93.07c1.58 0 1.6448 0.40076 0.14527 0.89861l-12.992 4.3134c-1.4995 0.49784-3.9785 0.89861-5.5585 0.89861h-93.07c-1.5799 0-1.6448-0.40077-0.14528-0.89861l12.992-4.3134c1.4995-0.49785 3.9786-0.89861 5.5585-0.89861z" fill="#ccc"/>
   <path d="m451.72 453.41h24.205c1.5799 0 1.6448 0.40076 0.14527 0.89861l-12.992 4.3134c-1.4995 0.49784-3.9786 0.89861-5.5585 0.89861h-24.205c-1.58 0-1.6448-0.40077-0.14528-0.89861l12.992-4.3134c1.4995-0.49785 3.9785-0.89861 5.5585-0.89861z" fill="#ccc"/>
   <path d="m486.15 453.41h24.204c1.58 0 1.6449 0.40076 0.14537 0.89861l-12.992 4.3134c-1.4995 0.49784-3.9786 0.89861-5.5586 0.89861h-24.204c-1.58 0-1.6449-0.40077-0.14538-0.89861l12.992-4.3134c1.4995-0.49785 3.9786-0.89861 5.5586-0.89861z" fill="#ccc"/>
   <path d="m520.59 453.41h24.205c1.58 0 1.6449 0.40076 0.14537 0.89861l-12.992 4.3134c-1.4995 0.49784-3.9786 0.89861-5.5586 0.89861h-24.205c-1.5799 0-1.6448-0.40077-0.14528-0.89861l12.992-4.3134c1.4995-0.49785 3.9786-0.89861 5.5585-0.89861z" fill="#ccc"/>
   <path d="m555.02 453.41h24.204c1.58 0 1.6449 0.40076 0.14537 0.89861l-12.992 4.3134c-1.4995 0.49784-3.9786 0.89861-5.5586 0.89861h-24.204c-1.58 0-1.6449-0.40077-0.14538-0.89861l12.992-4.3134c1.4995-0.49785 3.9786-0.89861 5.5586-0.89861z" fill="#ccc"/>
   <path d="m267.56 419.81h21.112c2.4366 0 3.1912 0.40076 1.6917 0.89861l-7.0373 2.3364c-1.4995 0.49784-4.6684 0.89864-7.105 0.89864h-21.112c-2.4366 0-3.1911-0.4008-1.6916-0.89864l7.0373-2.3364c1.4995-0.49785 4.6683-0.89861 7.1049-0.89861z" fill="#ccc"/>
   <path d="m300.4 419.81h21.112c2.4367 0 3.1912 0.40076 1.6917 0.89861l-7.0373 2.3364c-1.4995 0.49784-4.6683 0.89864-7.105 0.89864h-21.112c-2.4367 0-3.1911-0.4008-1.6916-0.89864l7.0373-2.3364c1.4995-0.49785 4.6682-0.89861 7.1049-0.89861z" fill="#ccc"/>
   <path d="m333.24 419.81h21.112c2.4367 0 3.1912 0.40076 1.6917 0.89861l-7.0373 2.3364c-1.4995 0.49784-4.6683 0.89864-7.105 0.89864h-21.112c-2.4367 0-3.1911-0.4008-1.6916-0.89864l7.0373-2.3364c1.4995-0.49785 4.6682-0.89861 7.1049-0.89861z" fill="#ccc"/>
   <path d="m366.08 419.81h21.112c2.4367 0 3.1912 0.40076 1.6917 0.89861l-7.0373 2.3364c-1.4995 0.49784-4.6683 0.89864-7.105 0.89864h-21.112c-2.4367 0-3.1911-0.4008-1.6916-0.89864l7.0373-2.3364c1.4995-0.49785 4.6682-0.89861 7.1049-0.89861z" fill="#ccc"/>
   <path d="m410.16 419.81h21.112c2.4367 0 3.1913 0.40076 1.6918 0.89861l-7.0373 2.3364c-1.4995 0.49784-4.6684 0.89864-7.1051 0.89864h-21.112c-2.4367 0-3.1911-0.4008-1.6916-0.89864l7.0373-2.3364c1.4995-0.49785 4.6682-0.89861 7.1049-0.89861z" fill="#ccc"/>
   <path d="m443 419.81h21.112c2.4367 0 3.1912 0.40076 1.6917 0.89861l-7.0373 2.3364c-1.4995 0.49784-4.6683 0.89864-7.105 0.89864h-21.112c-2.4367 0-3.1911-0.4008-1.6916-0.89864l7.0373-2.3364c1.4995-0.49785 4.6682-0.89861 7.1049-0.89861z" fill="#ccc"/>
   <path d="m475.84 419.81h21.112c2.4367 0 3.1912 0.40076 1.6917 0.89861l-7.0373 2.3364c-1.4995 0.49784-4.6683 0.89864-7.105 0.89864h-21.112c-2.4367 0-3.1911-0.4008-1.6916-0.89864l7.0373-2.3364c1.4995-0.49785 4.6682-0.89861 7.1049-0.89861z" fill="#ccc"/>
   <path d="m508.68 419.81h21.112c2.4367 0 3.1912 0.40076 1.6917 0.89861l-7.0373 2.3364c-1.4995 0.49784-4.6683 0.89864-7.105 0.89864h-21.112c-2.4367 0-3.1911-0.4008-1.6916-0.89864l7.0373-2.3364c1.4995-0.49785 4.6682-0.89861 7.1049-0.89861z" fill="#ccc"/>
   <path d="m552.76 419.81h21.112c2.4367 0 3.1912 0.40076 1.6917 0.89861l-7.0373 2.3364c-1.4995 0.49784-4.6683 0.89864-7.105 0.89864h-21.112c-2.4367 0-3.1911-0.4008-1.6916-0.89864l7.0373-2.3364c1.4995-0.49785 4.6682-0.89861 7.1049-0.89861z" fill="#ccc"/>
   <path d="m585.6 419.81h21.112c2.4367 0 3.1912 0.40076 1.6917 0.89861l-7.0373 2.3364c-1.4995 0.49784-4.6683 0.89864-7.105 0.89864h-21.112c-2.4367 0-3.1911-0.4008-1.6916-0.89864l7.0373-2.3364c1.4995-0.49785 4.6682-0.89861 7.1049-0.89861z" fill="#ccc"/>
   <path d="m618.44 419.81h21.112c2.4367 0 3.1912 0.40076 1.6917 0.89861l-7.0373 2.3364c-1.4995 0.49784-4.6683 0.89864-7.105 0.89864h-21.112c-2.4367 0-3.1911-0.4008-1.6916-0.89864l7.0373-2.3364c1.4995-0.49785 4.6682-0.89861 7.1049-0.89861z" fill="#ccc"/>
   <path d="m651.29 419.81h21.112c2.4367 0 3.1912 0.40076 1.6917 0.89861l-7.0373 2.3364c-1.4995 0.49784-4.6683 0.89864-7.105 0.89864h-21.112c-2.4367 0-3.1911-0.4008-1.6916-0.89864l7.0373-2.3364c1.4995-0.49785 4.6682-0.89861 7.1049-0.89861z" fill="#ccc"/>
   <path d="m695.37 419.81h21.112c2.4367 0 3.1912 0.40076 1.6917 0.89861l-7.0373 2.3364c-1.4995 0.49784-4.6683 0.89864-7.105 0.89864h-21.112c-2.4367 0-3.1911-0.4008-1.6916-0.89864l7.0373-2.3364c1.4995-0.49785 4.6682-0.89861 7.1049-0.89861z" fill="#ccc"/>
   <path d="m728.21 419.81h21.112c2.4367 0 3.1912 0.40076 1.6917 0.89861l-7.0373 2.3364c-1.4995 0.49784-4.6683 0.89864-7.105 0.89864h-21.112c-2.4367 0-3.1911-0.4008-1.6916-0.89864l7.0373-2.3364c1.4995-0.49785 4.6682-0.89861 7.1049-0.89861z" fill="#ccc"/>
   <path d="m761.05 419.81h21.112c2.4367 0 3.1912 0.40076 1.6917 0.89861l-7.0373 2.3364c-1.4995 0.49784-4.6683 0.89864-7.105 0.89864h-21.112c-2.4367 0-3.1911-0.4008-1.6916-0.89864l7.0373-2.3364c1.4995-0.49785 4.6682-0.89861 7.1049-0.89861z" fill="#ccc"/>
   <path d="m598.99 414.68h24.205c1.58 0 1.6448 0.40076 0.14528 0.89861l-7.0373 2.3364c-1.4995 0.49784-3.9786 0.89864-5.5586 0.89864h-24.205c-1.58 0-1.6447-0.4008-0.14518-0.89864l7.0373-2.3364c1.4995-0.49785 3.9785-0.89861 5.5585-0.89861z" fill="#ccc"/>
   <path d="m631.83 414.68h24.205c1.5799 0 1.6448 0.40076 0.14528 0.89861l-7.0373 2.3364c-1.4995 0.49784-3.9787 0.89864-5.5586 0.89864h-24.205c-1.58 0-1.6447-0.4008-0.14518-0.89864l7.0373-2.3364c1.4995-0.49785 3.9785-0.89861 5.5585-0.89861z" fill="#ccc"/>
   <path d="m664.67 414.68h24.205c1.58 0 1.6448 0.40076 0.14528 0.89861l-7.0373 2.3364c-1.4995 0.49784-3.9786 0.89864-5.5586 0.89864h-24.205c-1.58 0-1.6447-0.4008-0.14518-0.89864l7.0373-2.3364c1.4995-0.49785 3.9785-0.89861 5.5585-0.89861z" fill="#ccc"/>
   <path d="m710.3 414.68h21.112c2.4367 0 3.1912 0.40077 1.6917 0.89862l-7.0373 2.3364c-1.4995 0.49785-4.6683 0.89865-7.105 0.89865h-21.112c-2.4367 0-3.1911-0.4008-1.6916-0.89865l7.0373-2.3364c1.4995-0.49785 4.6682-0.89862 7.1049-0.89862z" fill="#ccc"/>
   <path d="m743.14 414.68h21.112c2.4367 0 3.1912 0.40077 1.6917 0.89862l-7.0373 2.3364c-1.4995 0.49785-4.6683 0.89865-7.105 0.89865h-21.112c-2.4367 0-3.1911-0.4008-1.6916-0.89865l7.0373-2.3364c1.4995-0.49785 4.6682-0.89862 7.1049-0.89862z" fill="#ccc"/>
   <path d="m775.98 414.68h21.112c2.4367 0 3.1912 0.40077 1.6917 0.89862l-7.0373 2.3364c-1.4995 0.49785-4.6683 0.89865-7.105 0.89865h-21.112c-2.4367 0-3.1911-0.4008-1.6916-0.89865l7.0373-2.3364c1.4995-0.49785 4.6682-0.89862 7.1049-0.89862z" fill="#ccc"/>
   <path d="m287.44 412.7h24.205c1.58 0 1.6447 0.4008 0.14528 0.89861l-12.992 4.3134c-1.4995 0.49784-3.9786 0.89864-5.5586 0.89864h-24.205c-1.5799 0-1.6447-0.4008-0.14518-0.89864l12.992-4.3134c1.4994-0.49781 3.9786-0.89861 5.5585-0.89861z" fill="#ccc"/>
   <path d="m576.23 458.54h21.811c2.5173 0 3.3368 0.40077 1.8373 0.89862l-7.0373 2.3364c-1.4995 0.49785-4.7333 0.89865-7.2506 0.89865h-21.811c-2.5174 0-3.3368-0.4008-1.8373-0.89865l7.0373-2.3364c1.4995-0.49785 4.7332-0.89862 7.2506-0.89862z" fill="#ccc"/>
   <path d="m610.15 458.54h21.811c2.5174 0 3.3369 0.40077 1.8374 0.89862l-7.0373 2.3364c-1.4995 0.49785-4.7333 0.89865-7.2507 0.89865h-21.811c-2.5174 0-3.3368-0.4008-1.8373-0.89865l7.0373-2.3364c1.4995-0.49785 4.7332-0.89862 7.2506-0.89862z" fill="#ccc"/>
   <path d="m644.08 458.54h21.811c2.5174 0 3.3369 0.40077 1.8374 0.89862l-7.0373 2.3364c-1.4995 0.49785-4.7333 0.89865-7.2507 0.89865h-21.811c-2.5173 0-3.3367-0.4008-1.8372-0.89865l7.0373-2.3364c1.4995-0.49785 4.7332-0.89862 7.2505-0.89862z" fill="#ccc"/>
   <path d="m591.14 453.41h21.811c2.5173 0 3.3368 0.40077 1.8373 0.89861l-7.0373 2.3364c-1.4995 0.49785-4.7333 0.89864-7.2506 0.89864h-21.811c-2.5174 0-3.3368-0.40079-1.8373-0.89864l7.0373-2.3364c1.4995-0.49784 4.7332-0.89861 7.2506-0.89861z" fill="#ccc"/>
   <path d="m625.07 453.41h21.811c2.5174 0 3.3369 0.40077 1.8374 0.89861l-7.0373 2.3364c-1.4995 0.49785-4.7333 0.89864-7.2507 0.89864h-21.811c-2.5174 0-3.3368-0.40079-1.8373-0.89864l7.0373-2.3364c1.4995-0.49784 4.7332-0.89861 7.2506-0.89861z" fill="#ccc"/>
   <path d="m659 453.41h21.811c2.5174 0 3.3369 0.40077 1.8374 0.89861l-7.0373 2.3364c-1.4995 0.49785-4.7333 0.89864-7.2507 0.89864h-21.811c-2.5173 0-3.3367-0.40079-1.8372-0.89864l7.0373-2.3364c1.4995-0.49784 4.7332-0.89861 7.2505-0.89861z" fill="#ccc"/>
   <path d="m568 416.37a1.3042 8.8757 84.674 0 1 -12.159 1.5379 1.3042 8.8757 84.674 0 1 -2.8951 -1.5379 1.3042 8.8757 84.674 0 1 12.159 -1.5379 1.3042 8.8757 84.674 0 1 2.8949 1.5379z" fill="#ccc"/>
   <path d="m335.52 416.37a1.3042 8.8757 84.674 0 1 -12.159 1.5379 1.3042 8.8757 84.674 0 1 -2.895 -1.5379 1.3042 8.8757 84.674 0 1 12.159 -1.5379 1.3042 8.8757 84.674 0 1 2.895 1.5379z" fill="#ccc"/>
   <path d="m358.96 416.37a1.3042 8.8757 84.674 0 1 -12.159 1.5379 1.3042 8.8757 84.674 0 1 -2.8951 -1.5379 1.3042 8.8757 84.674 0 1 12.159 -1.5379 1.3042 8.8757 84.674 0 1 2.8949 1.5379z" fill="#ccc"/>
   <path d="m382.41 416.37a1.3042 8.8757 84.674 0 1 -12.159 1.5379 1.3042 8.8757 84.674 0 1 -2.895 -1.5379 1.3042 8.8757 84.674 0 1 12.159 -1.5379 1.3042 8.8757 84.674 0 1 2.895 1.5379z" fill="#ccc"/>
   <path d="m394.56 415.49h30.888c0.6181 0 0.64335 0.15679 0.0568 0.35151l-3.1763 1.0546c-0.58661 0.19476-1.5563 0.35152-2.1744 0.35152h-30.888c-0.6181 0-0.64344-0.15676-0.0568-0.35152l3.1763-1.0546c0.58652-0.19472 1.5563-0.35151 2.1744-0.35151z" fill="#ccc"/>
  </g>
 </g>
</svg>
