<?xml version="1.0" encoding="utf-8"?>
<!-- Generator: Adobe Illustrator 16.0.3, SVG Export Plug-In . SVG Version: 6.00 Build 0)  -->
<!DOCTYPE svg PUBLIC "-//W3C//DTD SVG 1.1//EN" "http://www.w3.org/Graphics/SVG/1.1/DTD/svg11.dtd">
<svg version="1.1" id="Ebene_1" xmlns="http://www.w3.org/2000/svg" xmlns:xlink="http://www.w3.org/1999/xlink" x="0px" y="0px"
	 width="78px" height="54px" viewBox="0 0 78 54" enable-background="new 0 0 78 54" xml:space="preserve">
<g>
	<polygon fill="#FFFFFF" points="0,36.545 0,40.5 2.327,40.5 2.327,40.015 0.54,40.015 0.54,36.545 	"/>
	<g>
		<path fill="#FFFFFF" d="M6.063,39.105H3.979c0,0.338,0.093,0.598,0.278,0.78c0.164,0.158,0.374,0.237,0.632,0.237
			c0.293,0,0.538-0.085,0.734-0.257l0.215,0.37c-0.079,0.08-0.2,0.148-0.364,0.205c-0.205,0.076-0.434,0.113-0.686,0.113
			c-0.364,0-0.672-0.123-0.926-0.369c-0.282-0.271-0.424-0.638-0.424-1.097c0-0.478,0.145-0.859,0.435-1.147
			c0.259-0.257,0.566-0.387,0.921-0.387c0.412,0,0.735,0.117,0.969,0.35c0.227,0.223,0.34,0.52,0.34,0.889
			C6.104,38.905,6.09,39.009,6.063,39.105 M4.818,37.987c-0.229,0-0.42,0.073-0.575,0.222c-0.148,0.141-0.231,0.314-0.251,0.523
			h1.601c0-0.207-0.065-0.379-0.194-0.518C5.256,38.062,5.063,37.987,4.818,37.987"/>
		<path fill="#FFFFFF" d="M7.76,40.5v-2.46H7.363v-0.432h0.91V40.5H7.76z M8.041,36.515c0.088,0,0.163,0.031,0.226,0.094
			c0.062,0.062,0.093,0.137,0.093,0.223c0,0.089-0.031,0.162-0.093,0.225c-0.063,0.063-0.138,0.094-0.226,0.094
			c-0.086,0-0.161-0.031-0.223-0.094s-0.093-0.136-0.093-0.225c0-0.088,0.031-0.164,0.092-0.225S7.952,36.515,8.041,36.515"/>
		<path fill="#FFFFFF" d="M10.394,40.292l-0.181,0.262H9.957v-4.131h0.513v1.398c0.049-0.066,0.14-0.127,0.274-0.184
			c0.134-0.055,0.266-0.084,0.395-0.084c0.396,0,0.717,0.139,0.963,0.411c0.246,0.273,0.368,0.619,0.368,1.037
			c0,0.481-0.123,0.862-0.37,1.138c-0.247,0.276-0.581,0.414-1.002,0.414c-0.137,0-0.271-0.025-0.403-0.076
			C10.563,40.426,10.462,40.365,10.394,40.292 M10.469,38.213v1.669c0,0.029,0.064,0.076,0.191,0.142
			c0.128,0.065,0.225,0.099,0.292,0.099c0.349,0,0.6-0.084,0.75-0.251c0.151-0.167,0.227-0.448,0.227-0.843
			c0-0.327-0.088-0.582-0.265-0.767c-0.176-0.183-0.414-0.275-0.712-0.275c-0.063,0-0.151,0.027-0.263,0.081
			C10.577,38.123,10.503,38.17,10.469,38.213"/>
		<path fill="#FFFFFF" d="M15.685,40.5v-1.682c0-0.308-0.046-0.523-0.14-0.647c-0.093-0.123-0.248-0.185-0.465-0.185
			c-0.117,0-0.239,0.036-0.367,0.105c-0.127,0.071-0.226,0.157-0.294,0.259V40.5h-0.513v-2.892h0.351l0.162,0.373
			c0.169-0.285,0.445-0.428,0.829-0.428c0.633,0,0.95,0.387,0.95,1.156v1.79H15.685z"/>
		<path fill="#FFFFFF" d="M18.043,40.5v-2.46h-0.397v-0.432h0.91V40.5H18.043z M18.324,36.515c0.088,0,0.163,0.031,0.226,0.094
			c0.062,0.062,0.093,0.137,0.093,0.223c0,0.089-0.031,0.162-0.093,0.225c-0.063,0.063-0.138,0.094-0.226,0.094
			c-0.086,0-0.161-0.031-0.223-0.094s-0.093-0.136-0.093-0.225c0-0.088,0.031-0.164,0.092-0.225S18.235,36.515,18.324,36.515"/>
		<polygon fill="#FFFFFF" points="20.788,40.042 22.391,40.042 22.391,40.5 19.982,40.5 19.982,40.366 21.627,38.068 20.01,38.068 
			20.01,37.609 22.375,37.609 22.375,37.755 		"/>
		<path fill="#FFFFFF" d="M28.552,40.5l-0.272-0.834h-1.471L26.517,40.5h-0.605l1.606-4.009h0.143l1.49,4.009H28.552z
			 M27.564,37.528l-0.613,1.741h1.174L27.564,37.528z"/>
		<path fill="#FFFFFF" d="M30.206,40.328l0.181-0.486c0.286,0.188,0.517,0.281,0.691,0.281c0.317,0,0.476-0.133,0.476-0.4
			c0-0.189-0.153-0.354-0.459-0.49c-0.236-0.108-0.395-0.189-0.477-0.246c-0.082-0.055-0.153-0.119-0.213-0.189
			c-0.061-0.072-0.105-0.147-0.136-0.228c-0.029-0.08-0.044-0.166-0.044-0.259c0-0.236,0.087-0.422,0.259-0.555
			c0.173-0.134,0.399-0.201,0.678-0.201c0.21,0,0.476,0.067,0.796,0.201l-0.146,0.475c-0.204-0.162-0.408-0.242-0.613-0.242
			c-0.122,0-0.226,0.027-0.309,0.086c-0.083,0.058-0.125,0.13-0.125,0.219c0,0.185,0.105,0.325,0.315,0.42l0.368,0.168
			c0.225,0.104,0.389,0.221,0.491,0.352s0.154,0.296,0.154,0.493c0,0.26-0.091,0.462-0.273,0.61
			c-0.182,0.146-0.434,0.219-0.756,0.219C30.761,40.554,30.475,40.479,30.206,40.328"/>
		<path fill="#FFFFFF" d="M33.313,40.328l0.181-0.486c0.286,0.188,0.517,0.281,0.691,0.281c0.317,0,0.475-0.133,0.475-0.4
			c0-0.189-0.153-0.354-0.459-0.49c-0.235-0.108-0.394-0.189-0.476-0.246c-0.082-0.055-0.153-0.119-0.213-0.189
			c-0.061-0.072-0.105-0.147-0.135-0.228c-0.029-0.08-0.044-0.166-0.044-0.259c0-0.236,0.086-0.422,0.26-0.555
			c0.173-0.134,0.399-0.201,0.677-0.201c0.21,0,0.476,0.067,0.796,0.201l-0.146,0.475c-0.203-0.162-0.408-0.242-0.613-0.242
			c-0.122,0-0.225,0.027-0.309,0.086c-0.083,0.058-0.125,0.13-0.125,0.219c0,0.185,0.105,0.325,0.316,0.42l0.368,0.168
			c0.225,0.104,0.389,0.221,0.491,0.352s0.153,0.296,0.153,0.493c0,0.26-0.091,0.462-0.272,0.61
			c-0.182,0.146-0.434,0.219-0.756,0.219C33.867,40.554,33.581,40.479,33.313,40.328"/>
		<path fill="#FFFFFF" d="M36.419,39.048c0-0.446,0.12-0.807,0.361-1.082c0.24-0.273,0.557-0.412,0.949-0.412
			c0.414,0,0.735,0.133,0.964,0.396c0.229,0.264,0.343,0.63,0.343,1.098c0,0.467-0.117,0.834-0.351,1.104
			c-0.234,0.268-0.553,0.402-0.956,0.402c-0.412,0-0.733-0.135-0.964-0.407C36.534,39.875,36.419,39.509,36.419,39.048
			 M36.959,39.048c0,0.725,0.257,1.088,0.77,1.088c0.239,0,0.427-0.098,0.563-0.291c0.136-0.195,0.204-0.461,0.204-0.797
			c0-0.717-0.256-1.074-0.767-1.074c-0.234,0-0.421,0.095-0.56,0.285C37.029,38.451,36.959,38.712,36.959,39.048"/>
		<path fill="#FFFFFF" d="M42.625,37.843l-0.254,0.363c-0.053-0.053-0.145-0.103-0.277-0.149c-0.132-0.047-0.262-0.07-0.39-0.07
			c-0.278,0-0.501,0.099-0.664,0.294c-0.164,0.195-0.246,0.463-0.246,0.803c0,0.338,0.083,0.596,0.252,0.773
			c0.167,0.178,0.399,0.266,0.695,0.266c0.23,0,0.464-0.089,0.697-0.268l0.202,0.432c-0.275,0.18-0.616,0.268-1.023,0.268
			c-0.395,0-0.72-0.132-0.977-0.396c-0.258-0.265-0.387-0.623-0.387-1.074c0-0.461,0.133-0.831,0.4-1.109
			c0.268-0.279,0.634-0.42,1.098-0.42c0.15,0,0.313,0.032,0.486,0.096C42.414,37.712,42.542,37.777,42.625,37.843"/>
		<path fill="#FFFFFF" d="M44.297,40.5v-2.46h-0.396v-0.432h0.91V40.5H44.297z M44.579,36.515c0.088,0,0.163,0.031,0.226,0.094
			c0.062,0.062,0.093,0.137,0.093,0.223c0,0.089-0.031,0.162-0.093,0.225c-0.063,0.063-0.138,0.094-0.226,0.094
			c-0.086,0-0.16-0.031-0.223-0.094s-0.094-0.136-0.094-0.225c0-0.088,0.031-0.164,0.092-0.225
			C44.416,36.546,44.491,36.515,44.579,36.515"/>
		<path fill="#FFFFFF" d="M48.127,40.168c-0.205,0.258-0.52,0.386-0.942,0.386c-0.226,0-0.423-0.082-0.589-0.246
			c-0.168-0.166-0.25-0.37-0.25-0.615c0-0.293,0.128-0.541,0.385-0.743c0.256-0.202,0.582-0.304,0.98-0.304
			c0.109,0,0.23,0.023,0.367,0.07c0-0.469-0.209-0.702-0.626-0.702c-0.32,0-0.567,0.087-0.739,0.259l-0.217-0.43
			c0.098-0.078,0.232-0.146,0.404-0.203s0.336-0.086,0.492-0.086c0.42,0,0.725,0.096,0.914,0.287s0.285,0.494,0.285,0.91v1.037
			c0,0.254,0.076,0.422,0.227,0.506v0.258c-0.209,0-0.365-0.03-0.468-0.09C48.248,40.404,48.172,40.306,48.127,40.168
			 M48.079,39.081c-0.162-0.036-0.274-0.054-0.34-0.054c-0.26,0-0.471,0.066-0.635,0.199s-0.245,0.291-0.245,0.473
			c0,0.301,0.177,0.451,0.532,0.451c0.26,0,0.488-0.124,0.688-0.371V39.081z"/>
		<path fill="#FFFFFF" d="M50.452,38.014h-0.336v-0.405h0.336v-0.604l0.513-0.198v0.802h0.794v0.405h-0.794v1.437
			c0,0.242,0.04,0.415,0.122,0.518c0.082,0.104,0.215,0.154,0.396,0.154c0.131,0,0.268-0.033,0.408-0.1l0.074,0.451
			c-0.213,0.053-0.445,0.08-0.699,0.08c-0.229,0-0.422-0.084-0.579-0.254c-0.157-0.172-0.235-0.386-0.235-0.645V38.014z"/>
		<path fill="#FFFFFF" d="M53.577,40.5v-2.46H53.18v-0.432h0.91V40.5H53.577z M53.858,36.515c0.088,0,0.163,0.031,0.225,0.094
			c0.063,0.062,0.094,0.137,0.094,0.223c0,0.089-0.031,0.162-0.094,0.225c-0.062,0.063-0.137,0.094-0.225,0.094
			s-0.162-0.031-0.224-0.094c-0.063-0.063-0.093-0.136-0.093-0.225c0-0.088,0.03-0.164,0.092-0.225
			C53.694,36.546,53.768,36.515,53.858,36.515"/>
		<path fill="#FFFFFF" d="M55.584,39.048c0-0.446,0.119-0.807,0.36-1.082c0.239-0.273,0.557-0.412,0.949-0.412
			c0.413,0,0.735,0.133,0.964,0.396s0.342,0.63,0.342,1.098c0,0.467-0.117,0.834-0.35,1.104c-0.234,0.268-0.555,0.402-0.956,0.402
			c-0.413,0-0.733-0.135-0.964-0.407S55.584,39.509,55.584,39.048 M56.124,39.048c0,0.725,0.257,1.088,0.771,1.088
			c0.239,0,0.427-0.098,0.562-0.291c0.137-0.195,0.205-0.461,0.205-0.797c0-0.717-0.256-1.074-0.767-1.074
			c-0.234,0-0.421,0.095-0.561,0.285C56.194,38.451,56.124,38.712,56.124,39.048"/>
	</g>
	<g>
		<path fill="#FFFFFF" d="M61.387,40.5v-1.682c0-0.308-0.046-0.523-0.139-0.647c-0.093-0.123-0.247-0.185-0.466-0.185
			c-0.116,0-0.239,0.036-0.366,0.105c-0.129,0.071-0.227,0.157-0.295,0.259V40.5h-0.513v-2.892h0.351l0.162,0.373
			c0.168-0.285,0.445-0.428,0.828-0.428c0.635,0,0.951,0.387,0.951,1.156v1.79H61.387z"/>
		<path fill="#FFFFFF" d="M60.684,30.632c0.549,0.451,1.1,1.164,3.07-0.68c1.973-1.844,0.971-1.067,2.039,1.358
			c1.066,2.425,1.742,1.087,1.81,0.614c0.166-1.184-0.196-3.507-0.444-4.449c-0.209-0.792-1.566-1.184-2.109-0.789
			c-0.514,0.373-1.876,1.908-2.782,2.198c-0.905,0.291-0.187-0.581-0.413-2.037c-0.228-1.455-0.762-2.116-1.33-1.871
			c-0.385,0.166-1.225,1.025-1.619,0.804c-0.765-0.431-1.295-2.281-5.043-0.227c-4.365,2.392-0.453-3.039-0.453-3.039
			s2.91-3.977,1.164-6.855c-1.746-2.877-5.498,3.299-5.498,3.299s-1.971,3.912-2.845,8.051c-0.873,4.14-2.657,3.671-3.325,2.785
			c-0.724-0.957-0.523-4.724-3.109-3.14c-2.586,1.584-2.554,4.753-4.106,1.163c-1.552-3.588-3.184-1.283-3.395-0.905
			c-0.295,0.53-0.143,1.688-0.582,1.94c-0.495,0.283-1.113-0.734-1.487-0.873c-0.403-0.148-3.015,2.293-4.202,4.555
			c-1.71,3.262-4.454-4.58-4.188-5.07c0.233-0.43,6.917-9.685,7.549-11.028c0.657-1.396,1.616-1.811,2.102-1.876
			c0.485-0.064,6.661-1.099,11.124-5.82c4.461-4.721,3.783-5.885,1.648-7.082c-2.135-1.196-8.218,4.764-8.505,4.979
			c-0.208,0.157-5.238,5.821-5.593,6.532c-0.356,0.711-8.633,0.258-8.633,0.258c-0.96,0.47,0.103,0.864,0.103,0.864
			s3.713,0.54,6.031,0.477c2.317-0.064,0.787,1.29,0.513,1.614c-1.794,2.126-5.18,7.908-6.386,9.114
			c-1.206,1.205-3.517-0.137-3.65-0.159c-0.136-0.023-3.586-0.54-2.888,2.095c0.699,2.635,2.794,1.465,3.809,1.713
			c0.311,0.077,0.75,0.619,0.92,0.889c0.514,0.818,0.757,2.114,1.296,2.916c0.789,1.172,3.783,4.084,6.1-0.122
			c2.405-4.365,3.936-2.729,4.063-0.349c0.127,2.381,0.889,1.491,1.746,1.111c0.857-0.382,0.127-2.033,0.222-4.19
			c0.095-2.159,1.873,0.952,1.746,1.81c-0.126,0.856,1.206,0.697,2.381,0.221c1.174-0.475,0.253-1.205,1.872-2.697
			c1.62-1.492,1.701,2.01,2.124,2.826c0.34,0.656,2.034,2.031,2.892,0.189c0.856-1.841,2.198-1.441,1.907,0.434
			c-0.293,1.877,1.322,2.613,1.844,2.588c0.494-0.025,3.33-1.585,3.361-4.721c0.033-3.137,2.275-3.119,2.652-3.169
			c0.379-0.051,3.266-0.518,3.008,0.323c-0.26,0.84-1.553,3.265-0.065,3.233c1.487-0.031,0.873-1.325,2.264-2.779
			C60.78,26.202,60.133,30.179,60.684,30.632 M34.611,9.468c6.094-5.572,5.922-5.424,6.413-5.619
			c0.583-0.231,2.701-1.203,3.108-0.73c0.501,0.58,0.541,1.936-0.538,3.015c-1.08,1.08-4.63,4.705-6.856,5.619
			C34.627,12.62,27.389,16.071,34.611,9.468 M17.922,28.297c-0.217,0.091-0.823-0.432-0.801-0.706c0.045-0.537,0.601,0.018,1.239,0
			C19.008,27.576,18.151,28.202,17.922,28.297 M50.735,28.542c-0.35,1.271-0.863,3.369-1.447,3.91
			c-0.514,0.477-1.195,1.678-1.794-0.513s0.956-4.03,0.956-4.03s0.66-0.889,1.08-0.85C50.045,27.108,51.085,27.274,50.735,28.542
			 M50.68,24.416c-0.252,0.395-0.697-0.524-1.6,0.622c-0.375,0.477-0.139,1.059-0.6,1.57c-0.513,0.57-0.953,1.016-0.539-0.571
			c0.413-1.588,0.268-0.92,0.522-1.511c0.249-0.58,1.361-3.525,1.446-3.759c0.048-0.134,1.024-2.045,2.02-3.491
			c0,0,2.678-2.364,1.598,1.903C52.805,22.042,51.99,22.359,50.68,24.416"/>
		<path fill="#FFFFFF" d="M42.788,17.373c-0.198,2.103,1.097,1.42,1.097,1.42c2.409-1.24,0.503-2.39,0.503-2.39
			S42.987,15.271,42.788,17.373"/>
		<path fill="#FFFFFF" d="M77.936,36.162c-0.123-0.339-0.373-0.791-1.379,0.445c-1.541,1.891-1.332,0.699-1.478-0.541
			c-0.024-0.209,0.128-0.774-0.929-1.666c-0.553-0.467-3.123-1.184-2.543-1.771c1.479-1.501,1.092-1.355,1.631-2.021
			c0.54-0.666,2.539-2.635,2.444-5.427c-0.095-2.793-4.126-2.54-4.126-2.54c-2.635,0.477-1.523,2.889,0.381,2.729
			c1.775-0.147,1.539,1.343,1.405,1.824c-0.001,0.003-0.221,0.58-0.661,1.274c-0.59,0.931-1.316,2.269-2.016,2.944
			c-0.381,0.369-2.423,1.672-0.951,2.4c2.442,1.211,4.285,3.777,3.334,5.207c-0.953,1.427-8.443,4.268-9.999,4.95
			c-1.507,0.662-4.476,0.856-4.412,4.729c0.063,3.872,4.19,3.838,5.999,3.365c3.162-0.829,4.482-2.063,5.682-3.43
			c1.273-1.451,3.809-7.205,3.871-7.268c0.064-0.064,0.89-3.396,2.35-3.777S78.114,36.656,77.936,36.162 M73.343,27.193
			c-0.009,0.035-0.019,0.065-0.026,0.088L73.343,27.193z M73.025,40.89c0,0-2.922,5.627-3.245,6.126
			c-0.395,0.605-2.432,3.536-5.415,3.948s-4.616-1.314-4.584-2.361c0.031-1.047,1.006-2.418,4.274-4.039
			c7.328-3.631,7.973-3.91,7.973-3.91C72.557,40.445,73.69,39.772,73.025,40.89"/>
	</g>
	<g>
		<path fill="#FFFFFF" d="M70.374,18.583c-0.742-0.307-2.959,0.839-2.295,2.748C68.756,23.281,73.79,19.994,70.374,18.583"/>
	</g>
	<g>
		<path fill="#FFFFFF" d="M25.042,3.181h-0.63V2.904c0-0.133,0.005-0.242,0.018-0.326c0.011-0.083,0.029-0.153,0.052-0.21
			c0.023-0.056,0.053-0.101,0.086-0.134c0.033-0.034,0.069-0.059,0.109-0.074c0.039-0.016,0.088-0.023,0.146-0.023
			c0.08,0,0.144,0.021,0.188,0.064c0.044,0.043,0.084,0.117,0.117,0.221h0.261V1.943c-0.096-0.02-0.214-0.029-0.354-0.029
			c-0.159,0-0.296,0.017-0.413,0.051C24.507,2,24.396,2.06,24.294,2.144c-0.104,0.084-0.182,0.187-0.235,0.306
			c-0.054,0.12-0.088,0.275-0.104,0.468c-0.007,0.081-0.017,0.143-0.028,0.188c-0.011,0.044-0.024,0.079-0.039,0.101
			c-0.016,0.023-0.033,0.041-0.053,0.053s-0.042,0.022-0.063,0.027c-0.022,0.006-0.066,0.015-0.133,0.025v0.135h0.319v1.597
			c0,0.122-0.004,0.21-0.013,0.266c-0.009,0.057-0.023,0.1-0.041,0.129c-0.019,0.031-0.045,0.055-0.078,0.075
			c-0.034,0.019-0.089,0.039-0.166,0.061v0.129h1.079V5.575c-0.079-0.018-0.137-0.036-0.173-0.054
			C24.53,5.502,24.5,5.478,24.479,5.447c-0.022-0.031-0.039-0.076-0.05-0.136c-0.012-0.06-0.018-0.148-0.018-0.266V3.448h0.63V3.181
			z M21.507,3.622c0.114-0.185,0.277-0.277,0.489-0.277c0.127,0,0.24,0.04,0.338,0.12c0.099,0.08,0.177,0.205,0.233,0.376
			c0.058,0.17,0.086,0.386,0.086,0.644c0,0.139-0.012,0.272-0.035,0.4c-0.023,0.127-0.061,0.24-0.112,0.337
			c-0.052,0.096-0.119,0.173-0.202,0.23c-0.083,0.057-0.184,0.085-0.301,0.085c-0.215,0-0.379-0.097-0.495-0.291
			c-0.115-0.195-0.173-0.473-0.173-0.835C21.336,4.069,21.394,3.806,21.507,3.622 M22.595,5.597c0.178-0.1,0.315-0.25,0.412-0.45
			c0.097-0.201,0.146-0.447,0.146-0.739c0-0.41-0.097-0.725-0.291-0.943c-0.193-0.219-0.479-0.329-0.854-0.329
			c-0.226,0-0.426,0.049-0.602,0.146s-0.314,0.247-0.416,0.447c-0.101,0.201-0.151,0.446-0.151,0.737
			c0,0.422,0.096,0.741,0.289,0.956c0.193,0.215,0.472,0.323,0.838,0.323C22.208,5.746,22.418,5.696,22.595,5.597 M18.133,3.157
			h-0.161l-0.618,0.026v0.137c0.08,0.014,0.141,0.031,0.184,0.051c0.042,0.02,0.075,0.051,0.096,0.093
			c0.021,0.041,0.033,0.096,0.037,0.165c0.003,0.068,0.005,0.159,0.005,0.271v1.15c0,0.124-0.005,0.214-0.016,0.272
			c-0.011,0.058-0.026,0.101-0.047,0.129c-0.021,0.028-0.046,0.05-0.075,0.066c-0.029,0.016-0.078,0.034-0.144,0.055v0.129h1.063
			V5.575c-0.09-0.016-0.157-0.038-0.202-0.066C18.21,5.48,18.178,5.436,18.16,5.375c-0.02-0.061-0.029-0.171-0.029-0.331V4.121
			c0-0.084,0.011-0.158,0.033-0.219s0.062-0.127,0.12-0.198c0.058-0.07,0.119-0.124,0.181-0.16c0.063-0.037,0.125-0.056,0.189-0.056
			c0.083,0,0.148,0.021,0.195,0.064s0.092,0.113,0.134,0.207h0.298V3.152c-0.083-0.011-0.175-0.016-0.277-0.016
			c-0.122,0-0.229,0.019-0.326,0.055c-0.096,0.037-0.186,0.089-0.268,0.157c-0.083,0.068-0.173,0.161-0.27,0.278l-0.037-0.008
			L18.133,3.157z M15.267,4.184c0.019-0.269,0.083-0.477,0.191-0.622c0.108-0.146,0.253-0.218,0.434-0.218
			c0.12,0,0.216,0.032,0.291,0.097c0.074,0.064,0.129,0.156,0.166,0.277c0.037,0.12,0.061,0.276,0.072,0.466H15.267z M16.703,5.083
			c-0.114,0.122-0.229,0.209-0.344,0.263c-0.116,0.053-0.245,0.081-0.389,0.081c-0.171,0-0.31-0.041-0.416-0.121
			c-0.106-0.08-0.183-0.191-0.23-0.333c-0.046-0.141-0.069-0.315-0.069-0.523V4.403h1.663c-0.005-0.24-0.029-0.434-0.07-0.583
			c-0.042-0.148-0.1-0.271-0.175-0.37c-0.074-0.097-0.174-0.174-0.3-0.23c-0.125-0.056-0.276-0.084-0.453-0.084
			c-0.227,0-0.428,0.054-0.602,0.164s-0.308,0.264-0.402,0.464c-0.094,0.201-0.141,0.432-0.141,0.694
			c0,0.424,0.092,0.745,0.277,0.962c0.185,0.217,0.458,0.326,0.82,0.326c0.136,0,0.26-0.019,0.372-0.056s0.216-0.09,0.31-0.157
			c0.094-0.067,0.198-0.159,0.31-0.277L16.703,5.083z M12.461,4.055c0-0.081,0.017-0.153,0.049-0.217
			c0.032-0.063,0.083-0.127,0.152-0.192c0.07-0.065,0.14-0.113,0.21-0.144c0.071-0.03,0.156-0.046,0.256-0.046
			c0.201,0,0.351,0.088,0.45,0.263s0.149,0.437,0.149,0.785c0,0.345-0.055,0.604-0.164,0.776c-0.109,0.173-0.27,0.259-0.48,0.259
			c-0.084,0-0.162-0.008-0.23-0.025s-0.13-0.047-0.186-0.091c-0.055-0.044-0.098-0.092-0.126-0.146
			c-0.029-0.052-0.05-0.119-0.062-0.198c-0.012-0.081-0.019-0.188-0.019-0.324V4.055z M12.461,1.928h-0.155l-0.639,0.026v0.138
			c0.09,0.015,0.152,0.031,0.186,0.047c0.035,0.016,0.062,0.037,0.082,0.063c0.021,0.026,0.036,0.063,0.048,0.109
			c0.011,0.047,0.018,0.104,0.021,0.17c0.002,0.067,0.004,0.185,0.004,0.354v2.869l0.182,0.042l0.185-0.161
			c0.127,0.06,0.248,0.102,0.363,0.125c0.115,0.024,0.238,0.035,0.368,0.035c0.232,0,0.433-0.05,0.603-0.151
			c0.17-0.102,0.298-0.251,0.385-0.449c0.087-0.198,0.13-0.441,0.13-0.727c0-0.278-0.036-0.513-0.109-0.705
			c-0.073-0.192-0.177-0.335-0.311-0.432c-0.135-0.096-0.296-0.144-0.484-0.144c-0.104,0-0.199,0.016-0.287,0.046
			c-0.087,0.031-0.171,0.075-0.253,0.133c-0.082,0.058-0.184,0.151-0.308,0.279l-0.011-0.002V1.928z M8.041,3.157H7.88L7.263,3.181
			v0.14c0.079,0.014,0.14,0.031,0.184,0.051c0.042,0.02,0.075,0.051,0.096,0.093C7.563,3.506,7.576,3.561,7.58,3.63
			c0.003,0.068,0.005,0.159,0.005,0.271v1.15c0,0.124-0.005,0.214-0.017,0.272c-0.01,0.058-0.026,0.101-0.047,0.129
			C7.5,5.481,7.475,5.503,7.446,5.52C7.417,5.535,7.369,5.553,7.302,5.575v0.129h1.034V5.575C8.271,5.557,8.223,5.54,8.19,5.523
			S8.132,5.489,8.115,5.47C8.097,5.452,8.083,5.428,8.072,5.397C8.06,5.368,8.052,5.327,8.047,5.273
			C8.041,5.222,8.039,5.145,8.039,5.044v-0.99c0-0.078,0.017-0.15,0.05-0.217c0.034-0.066,0.083-0.131,0.149-0.192
			s0.131-0.109,0.194-0.141c0.063-0.032,0.131-0.049,0.203-0.049c0.051,0,0.097,0.005,0.138,0.015
			c0.04,0.01,0.076,0.024,0.105,0.044c0.029,0.019,0.059,0.047,0.088,0.084c0.029,0.038,0.053,0.085,0.071,0.146
			C9.056,3.803,9.07,3.882,9.078,3.98C9.087,4.08,9.092,4.207,9.092,4.363v0.691c0,0.12-0.006,0.209-0.018,0.269
			c-0.012,0.058-0.027,0.103-0.047,0.13C9.006,5.481,8.982,5.503,8.952,5.52c-0.03,0.016-0.079,0.034-0.148,0.055v0.129h1.037V5.575
			C9.762,5.553,9.706,5.533,9.672,5.513c-0.033-0.02-0.058-0.044-0.075-0.073C9.58,5.412,9.567,5.373,9.559,5.321
			C9.55,5.271,9.545,5.178,9.545,5.044V4.081c0-0.092,0.017-0.171,0.048-0.239C9.625,3.774,9.676,3.707,9.747,3.64
			s0.138-0.114,0.198-0.143c0.061-0.027,0.126-0.042,0.196-0.042c0.067,0,0.121,0.008,0.161,0.021
			c0.041,0.014,0.076,0.033,0.105,0.058c0.03,0.025,0.057,0.054,0.081,0.087c0.024,0.034,0.044,0.079,0.061,0.137
			c0.017,0.058,0.029,0.136,0.037,0.234c0.008,0.097,0.012,0.221,0.012,0.371v0.691c0,0.12-0.005,0.209-0.017,0.269
			c-0.012,0.058-0.027,0.103-0.047,0.13c-0.02,0.028-0.045,0.05-0.075,0.066c-0.03,0.016-0.079,0.034-0.147,0.055v0.129h1.037V5.575
			c-0.079-0.021-0.135-0.042-0.168-0.062c-0.034-0.02-0.059-0.044-0.076-0.073c-0.017-0.027-0.029-0.067-0.038-0.118
			c-0.009-0.051-0.013-0.144-0.013-0.277V4.049c0-0.182-0.013-0.326-0.041-0.433c-0.027-0.107-0.07-0.196-0.129-0.268
			c-0.059-0.071-0.131-0.125-0.217-0.158c-0.085-0.034-0.187-0.052-0.305-0.052c-0.098,0-0.191,0.018-0.276,0.052
			C10,3.224,9.916,3.273,9.834,3.337C9.752,3.4,9.646,3.499,9.514,3.632C9.472,3.465,9.395,3.341,9.284,3.26
			C9.173,3.179,9.03,3.139,8.854,3.139c-0.058,0-0.115,0.007-0.17,0.021C8.628,3.174,8.569,3.197,8.506,3.229
			c-0.064,0.033-0.129,0.076-0.197,0.13s-0.154,0.133-0.26,0.238l-0.037-0.01L8.041,3.157z M5.175,4.184
			c0.019-0.269,0.083-0.477,0.191-0.622C5.475,3.417,5.62,3.345,5.801,3.345c0.119,0,0.216,0.032,0.291,0.097
			C6.165,3.506,6.22,3.598,6.257,3.718c0.037,0.12,0.061,0.276,0.071,0.466H5.175z M6.611,5.083
			C6.497,5.205,6.381,5.293,6.267,5.347C6.151,5.4,6.021,5.427,5.877,5.427c-0.171,0-0.31-0.041-0.416-0.121
			c-0.107-0.08-0.184-0.191-0.23-0.333c-0.047-0.141-0.07-0.315-0.07-0.523V4.403h1.663c-0.005-0.24-0.028-0.434-0.07-0.583
			C6.713,3.672,6.655,3.549,6.58,3.451c-0.074-0.097-0.174-0.174-0.299-0.23C6.156,3.165,6.004,3.136,5.827,3.136
			c-0.227,0-0.428,0.054-0.602,0.164C5.051,3.409,4.917,3.564,4.823,3.764C4.729,3.965,4.681,4.196,4.681,4.458
			c0,0.424,0.093,0.745,0.277,0.962c0.185,0.217,0.458,0.326,0.821,0.326c0.136,0,0.26-0.019,0.372-0.056
			c0.113-0.038,0.216-0.09,0.31-0.157c0.094-0.067,0.198-0.159,0.31-0.277L6.611,5.083z M4.088,2.102H3.196l-1.02,2.568L1.251,2.102
			H0.309V2.23C0.39,2.254,0.447,2.275,0.48,2.293c0.033,0.018,0.06,0.043,0.081,0.074c0.02,0.031,0.035,0.074,0.043,0.129
			C0.613,2.552,0.618,2.64,0.618,2.761v2.283c0,0.13-0.006,0.227-0.018,0.29C0.589,5.397,0.565,5.447,0.528,5.481
			c-0.037,0.035-0.11,0.065-0.219,0.094v0.129h0.963V5.575c-0.081-0.021-0.14-0.042-0.175-0.063C1.06,5.49,1.033,5.464,1.015,5.432
			s-0.031-0.075-0.04-0.129C0.967,5.248,0.963,5.162,0.963,5.044V4.079c0-0.297-0.004-0.587-0.012-0.869
			C0.943,2.929,0.935,2.734,0.926,2.627h0.045l0.971,2.658h0.304l1.045-2.616h0.044c-0.01,0.101-0.02,0.287-0.027,0.558
			C3.3,3.499,3.296,3.768,3.296,4.034v1.011c0,0.143-0.007,0.245-0.021,0.306C3.261,5.412,3.234,5.458,3.196,5.49
			C3.157,5.522,3.087,5.55,2.987,5.575v0.129h1.101V5.575c-0.081-0.021-0.14-0.042-0.175-0.063C3.876,5.49,3.849,5.464,3.831,5.432
			s-0.031-0.075-0.04-0.129C3.783,5.248,3.779,5.162,3.779,5.044V2.761c0-0.122,0.004-0.211,0.014-0.269s0.025-0.102,0.045-0.13
			C3.859,2.333,3.886,2.309,3.92,2.289C3.955,2.27,4.01,2.25,4.088,2.23V2.102z"/>
	</g>
	<g>
		<path fill="#FFFFFF" d="M26.922,3.254c0.088-0.014,0.159-0.039,0.214-0.074c0.054-0.036,0.097-0.081,0.128-0.136
			s0.055-0.125,0.072-0.208c0.018-0.083,0.036-0.206,0.056-0.365h0.375v0.652h0.853v0.267h-0.853v1.174
			c0,0.17,0.007,0.307,0.021,0.408s0.041,0.18,0.079,0.237s0.083,0.098,0.132,0.123c0.049,0.024,0.113,0.037,0.19,0.037
			c0.07,0,0.136-0.015,0.198-0.043c0.062-0.029,0.122-0.071,0.182-0.125l0.119,0.143c-0.125,0.122-0.243,0.209-0.355,0.264
			c-0.112,0.054-0.228,0.082-0.347,0.082c-0.227,0-0.396-0.067-0.507-0.202c-0.111-0.134-0.166-0.345-0.166-0.632V3.389h-0.391
			V3.254z"/>
		<path fill="#FFFFFF" d="M29.616,3.536l0.011,0.003c0.137-0.139,0.246-0.236,0.326-0.292c0.08-0.055,0.159-0.097,0.237-0.125
			c0.078-0.028,0.162-0.042,0.252-0.042c0.097,0,0.183,0.012,0.259,0.035c0.075,0.022,0.142,0.057,0.199,0.104
			c0.058,0.047,0.104,0.104,0.141,0.171c0.036,0.068,0.063,0.148,0.08,0.243s0.026,0.214,0.026,0.358v0.995
			c0,0.153,0.006,0.257,0.02,0.313c0.013,0.055,0.037,0.099,0.071,0.129c0.035,0.031,0.104,0.061,0.208,0.089v0.129h-1.04V5.516
			c0.069-0.021,0.118-0.04,0.148-0.056c0.03-0.016,0.055-0.038,0.075-0.066c0.02-0.028,0.036-0.072,0.047-0.13
			c0.011-0.059,0.017-0.148,0.017-0.268V4.304c0-0.234-0.012-0.413-0.036-0.537c-0.023-0.124-0.07-0.217-0.14-0.278
			s-0.167-0.092-0.292-0.092c-0.07,0-0.134,0.012-0.19,0.037c-0.057,0.025-0.122,0.069-0.195,0.132
			c-0.074,0.063-0.13,0.128-0.167,0.195c-0.038,0.067-0.057,0.138-0.057,0.213v1.011c0,0.12,0.003,0.205,0.009,0.256
			c0.006,0.051,0.018,0.094,0.036,0.128s0.044,0.063,0.081,0.084s0.092,0.042,0.167,0.062v0.129h-1.045V5.516
			c0.077-0.021,0.133-0.042,0.166-0.061c0.033-0.02,0.06-0.044,0.078-0.074c0.018-0.03,0.032-0.073,0.041-0.129
			c0.009-0.056,0.014-0.145,0.014-0.266V2.776c0-0.169-0.001-0.287-0.004-0.354c-0.002-0.067-0.01-0.124-0.021-0.17
			c-0.011-0.047-0.027-0.083-0.047-0.109c-0.021-0.027-0.048-0.048-0.082-0.063c-0.034-0.016-0.096-0.032-0.186-0.047V1.895
			l0.636-0.027h0.158V3.536z"/>
		<path fill="#FFFFFF" d="M34,5.196c-0.112,0.118-0.216,0.21-0.31,0.277c-0.094,0.067-0.197,0.119-0.31,0.157
			c-0.112,0.038-0.236,0.057-0.372,0.057c-0.362,0-0.636-0.109-0.82-0.326c-0.185-0.217-0.277-0.538-0.277-0.962
			c0-0.263,0.047-0.494,0.141-0.694s0.229-0.355,0.402-0.464c0.174-0.109,0.375-0.164,0.602-0.164c0.178,0,0.329,0.028,0.454,0.084
			c0.125,0.056,0.225,0.133,0.299,0.231c0.075,0.097,0.133,0.221,0.174,0.369c0.042,0.149,0.065,0.343,0.07,0.582H32.39v0.047
			c0,0.208,0.023,0.382,0.07,0.524c0.046,0.142,0.123,0.252,0.229,0.333s0.245,0.12,0.416,0.12c0.145,0,0.274-0.027,0.39-0.08
			c0.115-0.054,0.23-0.142,0.344-0.263L34,5.196z M33.556,4.125c-0.01-0.19-0.034-0.345-0.071-0.466
			c-0.037-0.121-0.092-0.213-0.166-0.277c-0.074-0.064-0.17-0.096-0.291-0.096c-0.181,0-0.325,0.072-0.434,0.218
			c-0.108,0.145-0.172,0.352-0.191,0.621H33.556z"/>
	</g>
</g>
</svg>
