<?xml version="1.0" encoding="UTF-8" standalone="no"?>
<!-- Generator: Adobe Illustrator 23.0.3, SVG Export Plug-In . SVG Version: 6.00 Build 0)  -->

<svg
   xmlns:dc="http://purl.org/dc/elements/1.1/"
   xmlns:cc="http://creativecommons.org/ns#"
   xmlns:rdf="http://www.w3.org/1999/02/22-rdf-syntax-ns#"
   xmlns:svg="http://www.w3.org/2000/svg"
   xmlns="http://www.w3.org/2000/svg"
   xmlns:sodipodi="http://sodipodi.sourceforge.net/DTD/sodipodi-0.dtd"
   xmlns:inkscape="http://www.inkscape.org/namespaces/inkscape"
   version="1.1"
   id="Layer_1"
   x="0px"
   y="0px"
   viewBox="0 0 76.400002 78.603592"
   xml:space="preserve"
   sodipodi:docname="powered_by_jupyter_logo.svg"
   width="76.400002"
   height="78.603592"
   inkscape:version="0.92.4 (5da689c313, 2019-01-14)"><metadata
   id="metadata47"><rdf:RDF><cc:Work
       rdf:about=""><dc:format>image/svg+xml</dc:format><dc:type
         rdf:resource="http://purl.org/dc/dcmitype/StillImage" /></cc:Work></rdf:RDF></metadata><defs
   id="defs45">
	
	
</defs><sodipodi:namedview
   pagecolor="#ffffff"
   bordercolor="#666666"
   borderopacity="1"
   objecttolerance="10"
   gridtolerance="10"
   guidetolerance="10"
   inkscape:pageopacity="0"
   inkscape:pageshadow="2"
   inkscape:window-width="1920"
   inkscape:window-height="1148"
   id="namedview43"
   showgrid="false"
   inkscape:zoom="2.3838384"
   inkscape:cx="39.877966"
   inkscape:cy="39.003592"
   inkscape:window-x="-8"
   inkscape:window-y="-8"
   inkscape:window-maximized="1"
   inkscape:current-layer="Layer_1" />
<style
   type="text/css"
   id="style2">
	.st0{fill:#FFFFFF;}
	.st1{fill:#4E4E4D;}
	.st2{fill:#767676;}
	.st3{fill:#F37826;}
	.st4{fill:#9D9D9D;}
	.st5{fill:#616262;}
</style>


<g
   id="g892"
   transform="matrix(0.9604,0,0,0.9604,-7.7282813,-7.9516089)"><g
     transform="translate(-1.6779661)"
     id="g13">
		<path
   id="path0_fill_1_"
   class="st1"
   d="m 25.2,58.9 c 0,1.9 -0.2,2.6 -0.6,3 -0.4,0.4 -1,0.6 -1.6,0.6 l 0.2,1.1 c 0.9,0 1.8,-0.3 2.5,-0.9 0.8,-0.9 1.1,-2.1 1,-3.3 v -7.3 h -1.5 z"
   inkscape:connector-curvature="0"
   style="fill:#4e4e4d" />
		<path
   id="path1_fill_1_"
   class="st1"
   d="m 36.3,58 c 0,0.8 0,1.6 0.1,2.2 H 35 v -1.3 c -0.6,1 -1.6,1.5 -2.7,1.5 -1.3,0 -2.8,-0.7 -2.8,-3.5 V 52.1 H 31 v 4.4 c 0,1.5 0.5,2.6 1.8,2.6 1.1,0 2.1,-0.9 2.1,-2.1 v 0 -5 h 1.5 z"
   inkscape:connector-curvature="0"
   style="fill:#4e4e4d" />
		<path
   id="path2_fill_1_"
   class="st1"
   d="m 39.1,54.8 c 0,-1 0,-1.9 -0.1,-2.6 h 1.3 l 0.1,1.4 c 0.6,-1 1.7,-1.6 2.9,-1.5 2,0 3.5,1.7 3.5,4.1 0,2.9 -1.8,4.3 -3.7,4.3 -1,0 -2,-0.4 -2.5,-1.3 v 4.4 h -1.5 z m 1.5,2.1 c 0,0.2 0,0.4 0.1,0.6 0.3,1 1.2,1.7 2.2,1.7 1.6,0 2.5,-1.3 2.5,-3.1 0,-1.6 -0.9,-3 -2.4,-3 -1.3,0.1 -2.3,1.1 -2.3,2.4 z"
   inkscape:connector-curvature="0"
   style="fill:#4e4e4d" />
		<path
   id="path3_fill_1_"
   class="st1"
   d="m 49.5,52.1 1.8,4.8 c 0.2,0.5 0.4,1.2 0.5,1.7 0.2,-0.5 0.3,-1.1 0.5,-1.7 l 1.6,-4.8 h 1.6 l -2.2,5.8 c -1.1,2.8 -1.8,4.2 -2.8,5.1 -0.5,0.5 -1.1,0.8 -1.8,1 l -0.4,-1.2 c 0.5,-0.2 0.9,-0.4 1.3,-0.7 0.5,-0.4 1,-1 1.2,-1.6 0.1,-0.1 0.1,-0.2 0.1,-0.4 0,-0.1 0,-0.3 -0.1,-0.4 l -3,-7.5 z"
   inkscape:connector-curvature="0"
   style="fill:#4e4e4d" />
		<path
   id="path4_fill_1_"
   class="st1"
   d="m 59.5,49.8 v 2.3 h 2.1 v 1.1 h -2.1 v 4.4 c 0,1 0.3,1.6 1.1,1.6 0.3,0 0.6,0 0.9,-0.1 l 0.1,1.1 c -0.4,0.1 -0.9,0.2 -1.3,0.2 -0.6,0 -1.2,-0.2 -1.6,-0.6 -0.4,-0.6 -0.6,-1.4 -0.6,-2.1 V 53.2 H 56.8 V 52.1 H 58 v -2 z"
   inkscape:connector-curvature="0"
   style="fill:#4e4e4d" />
		<path
   id="path5_fill_1_"
   class="st1"
   d="m 64.3,56.5 c -0.1,1.4 1,2.7 2.4,2.8 0.1,0 0.3,0 0.4,0 0.8,0 1.5,-0.1 2.2,-0.4 l 0.3,1.1 c -0.9,0.4 -1.8,0.5 -2.7,0.5 -2.1,0.1 -3.9,-1.5 -4,-3.5 0,-0.2 0,-0.4 0,-0.6 0,-2.4 1.4,-4.4 3.8,-4.4 2.6,0 3.3,2.3 3.3,3.8 0,0.2 0,0.5 0,0.7 z m 4.4,-1.2 c 0.2,-1.1 -0.6,-2.2 -1.8,-2.4 -0.1,0 -0.2,0 -0.3,0 -1.3,0.1 -2.3,1.1 -2.3,2.4 z"
   inkscape:connector-curvature="0"
   style="fill:#4e4e4d" />
		<path
   id="path6_fill_1_"
   class="st1"
   d="m 72.3,54.7 c 0,-1 0,-1.8 -0.1,-2.5 h 1.3 v 1.6 h 0.1 c 0.3,-1 1.2,-1.7 2.2,-1.8 0.1,0 0.3,0 0.4,0 v 1.4 c -0.2,0 -0.3,0 -0.5,0 -1,0 -1.9,0.8 -2,1.9 0,0.2 -0.1,0.5 -0.1,0.7 v 4.3 h -1.4 z"
   inkscape:connector-curvature="0"
   style="fill:#4e4e4d" />
	</g><g
     transform="translate(-1.6779661)"
     id="g_1_">
		<path
   id="path7_fill_1_"
   class="st2"
   d="m 71.6,29.8 c 0.1,2.1 -1.5,3.9 -3.5,4 -2.1,0.1 -3.9,-1.5 -4,-3.5 -0.1,-2.1 1.5,-3.9 3.5,-4 0,0 0,0 0.1,0 2.1,-0.1 3.8,1.5 3.9,3.5 z"
   inkscape:connector-curvature="0"
   style="fill:#767676" />
		<path
   id="path8_fill_1_"
   class="st3"
   d="m 49.7,73.3 c -10,0 -18.8,-3.6 -23.3,-8.9 4.8,12.9 19.1,19.5 31.9,14.7 6.8,-2.5 12.2,-7.9 14.7,-14.7 -4.6,5.3 -13.3,8.9 -23.3,8.9 z"
   inkscape:connector-curvature="0"
   style="fill:#f37826" />
		<path
   id="path9_fill_1_"
   class="st3"
   d="m 49.7,38.9 c 10,0 18.8,3.6 23.3,8.9 C 68.2,34.9 53.9,28.3 41,33.1 34.2,35.6 28.8,41 26.3,47.8 30.9,42.5 39.6,38.9 49.7,38.9 Z"
   inkscape:connector-curvature="0"
   style="fill:#f37826" />
		<path
   id="path10_fill_1_"
   class="st4"
   d="m 35.9,83.6 c 0.1,2.6 -1.9,4.8 -4.5,4.9 -2.6,0.1 -4.8,-1.9 -4.9,-4.5 -0.1,-2.6 1.9,-4.8 4.5,-4.9 1.9,-0.1 3.7,1 4.5,2.7 0.2,0.6 0.4,1.2 0.4,1.8 z"
   inkscape:connector-curvature="0"
   style="fill:#9d9d9d" />
		<path
   id="path11_fill_1_"
   class="st5"
   d="m 27.5,37.7 c -1.5,0 -2.8,-1.1 -2.8,-2.7 0,-1.5 1.1,-2.8 2.7,-2.8 1.5,0 2.7,1.1 2.8,2.6 0,1.5 -1.2,2.8 -2.7,2.9 z"
   inkscape:connector-curvature="0"
   style="fill:#616262" />
	</g><g
     transform="translate(-1.6779661)"
     id="g40">
	<path
   style="fill:#767676"
   inkscape:connector-curvature="0"
   id="path22"
   d="M 11.3,10.1 C 12,10 12.7,9.9 13.4,10 c 0.7,-0.1 1.5,0.1 2.1,0.5 0.5,0.4 0.7,0.9 0.7,1.5 0,0.6 -0.2,1.2 -0.6,1.6 -0.6,0.5 -1.4,0.8 -2.2,0.7 -0.2,0 -0.3,0 -0.5,0 v 2.4 h -1.5 v -6.6 z m 1.5,3 c 0.2,0 0.3,0 0.5,0 0.8,0 1.3,-0.4 1.3,-1.1 0,-0.7 -0.4,-1 -1.2,-1 -0.2,0 -0.4,0 -0.6,0.1 z"
   class="st2" />
	<path
   style="fill:#767676"
   inkscape:connector-curvature="0"
   id="path24"
   d="m 25.3,13.3 c 0.2,1.8 -1.1,3.3 -2.9,3.5 -0.1,0 -0.3,0 -0.4,0 -1.7,0 -3.2,-1.4 -3.2,-3.1 0,-0.1 0,-0.2 0,-0.3 -0.1,-1.8 1.2,-3.4 3,-3.5 0.1,0 0.2,0 0.3,0 1.7,0 3.2,1.4 3.2,3.1 0,0.1 0,0.2 0,0.3 z m -4.9,0.1 c 0,1.3 0.6,2.2 1.6,2.2 1,0 1.6,-1 1.6,-2.3 0,-1.3 -0.6,-2.2 -1.6,-2.2 -1,0 -1.6,1 -1.6,2.3 z"
   class="st2" />
	<path
   style="fill:#767676"
   inkscape:connector-curvature="0"
   id="path26"
   d="M 29.3,16.7 27.7,10 h 1.6 l 0.5,2.8 c 0.1,0.8 0.3,1.7 0.4,2.3 v 0 c 0.1,-0.7 0.3,-1.5 0.4,-2.4 l 0.6,-2.8 h 1.6 l 0.5,2.8 c 0.2,0.8 0.3,1.5 0.4,2.3 v 0 c 0.1,-0.8 0.2,-1.5 0.4,-2.3 l 0.6,-2.8 h 1.5 l -1.7,6.7 H 32.9 L 32.3,13.7 C 32.2,13 32.1,12.4 32,11.6 v 0 c -0.1,0.8 -0.2,1.4 -0.4,2.1 l -0.6,3 z"
   class="st2" />
	<path
   style="fill:#767676"
   inkscape:connector-curvature="0"
   id="path28"
   d="m 43.1,13.9 h -2.5 v 1.6 h 2.8 v 1.2 H 39.1 V 10 h 4.2 v 1.2 h -2.6 v 1.4 h 2.5 v 1.3 z"
   class="st2" />
	<path
   style="fill:#767676"
   inkscape:connector-curvature="0"
   id="path30"
   d="m 46.4,10.1 c 0.7,-0.1 1.3,-0.1 2,-0.1 0.8,-0.1 1.5,0.1 2.2,0.5 0.4,0.3 0.6,0.9 0.6,1.4 0,0.7 -0.5,1.4 -1.2,1.7 v 0 c 0.5,0.3 0.8,0.7 0.9,1.3 0.2,0.8 0.4,1.6 0.5,1.9 H 50 C 49.8,16.3 49.6,15.8 49.5,15.2 49.3,14.3 49,14 48.4,14 H 48 v 2.6 H 46.4 Z M 48,13 h 0.6 c 0.8,0 1.2,-0.4 1.2,-1 0,-0.6 -0.4,-0.9 -1.1,-0.9 -0.2,0 -0.5,0 -0.7,0.1 z"
   class="st2" />
	<path
   style="fill:#767676"
   inkscape:connector-curvature="0"
   id="path32"
   d="m 58.4,13.9 h -2.5 v 1.6 h 2.8 v 1.2 H 54.4 V 10 h 4.2 v 1.2 H 56 v 1.4 h 2.5 z"
   class="st2" />
	<path
   style="fill:#767676"
   inkscape:connector-curvature="0"
   id="path34"
   d="M 61.7,10.1 C 62.4,10 63.1,10 63.8,10 c 1,-0.1 1.9,0.2 2.8,0.7 0.8,0.6 1.2,1.6 1.1,2.5 0.1,1 -0.4,2 -1.1,2.7 -0.9,0.6 -2,0.9 -3.1,0.9 -0.6,0 -1.2,0 -1.7,-0.1 z m 1.5,5.5 c 0.2,0 0.4,0 0.5,0 1.2,0.1 2.2,-0.8 2.2,-1.9 0,-0.1 0,-0.3 0,-0.4 0.1,-1.1 -0.6,-2 -1.7,-2.1 -0.1,0 -0.3,0 -0.4,0 -0.2,0 -0.5,0 -0.7,0.1 z"
   class="st2" />
	<path
   style="fill:#767676"
   inkscape:connector-curvature="0"
   id="path36"
   d="M 74.7,10.1 C 75.4,10 76,10 76.7,10 c 0.7,-0.1 1.4,0.1 2,0.4 0.5,0.3 0.8,0.8 0.8,1.3 0,0.7 -0.5,1.3 -1.1,1.4 v 0 c 0.8,0.2 1.3,0.9 1.3,1.7 0,0.6 -0.3,1.1 -0.7,1.4 -0.8,0.5 -1.7,0.7 -2.7,0.6 -0.6,0 -1.1,0 -1.7,-0.1 z m 1.5,2.5 h 0.5 c 0.8,0 1.2,-0.3 1.2,-0.8 0,-0.5 -0.4,-0.8 -1.1,-0.8 -0.2,0 -0.4,0 -0.7,0 z m 0,3 c 0.2,0 0.4,0 0.6,0 0.7,0 1.3,-0.3 1.3,-1 0,-0.7 -0.6,-0.9 -1.4,-0.9 h -0.5 z"
   class="st2" />
	<path
   style="fill:#767676"
   inkscape:connector-curvature="0"
   id="path38"
   d="M 84,16.7 V 14 l -2.1,-4 h 1.7 l 0.7,1.6 c 0.2,0.5 0.3,0.9 0.5,1.3 v 0 c 0.2,-0.4 0.3,-0.8 0.5,-1.3 L 86,10 h 1.7 l -2.2,3.9 v 2.8 c 0,0 -1.5,0 -1.5,0 z"
   class="st2" />
</g></g>
</svg>